<svg xmlns="http://www.w3.org/2000/svg" xmlns:svg="http://www.w3.org/2000/svg" xmlns:xlink="http://www.w3.org/1999/xlink" id="svg2432" width="256" height="179.2" version="1.0" viewBox="-2100 -1470 4200 2058"><metadata id="metadata3"/><title id="title2434">Flag of Brazil</title><defs id="defs2436"><path id="O" d="m 0,0 c 17.39697,0 31.5,-15.670034 31.5,-35 0,-19.329966 -14.10303,-35 -31.5,-35 -17.39697,0 -31.5,15.670034 -31.5,35 0,19.329966 14.10303,35 31.5,35 m 0,-13 c 10.217268,0 18.5,-9.849736 18.5,-22 0,-12.150264 -8.282732,-22 -18.5,-22 -10.217268,0 -18.5,9.849736 -18.5,22 0,12.150264 8.282732,22 18.5,22" style="fill-rule:evenodd"/><g id="R"><use id="use2440" width="4200" height="2940" x="0" y="0" xlink:href="#P"/><path id="path2442" d="m 28,0 c 0,-10 0,-32 -15,-32 l -19,0 c 22,0 22,22 22,32"/></g><path id="D" d="m -31.5,0 33,0 c 16.568542,0 30,-13.431458 30,-30 l 0,-10 c 0,-16.568542 -13.431458,-30 -30,-30 l -33,0 0,70 z m 13,-13 19,0 c 10.49341,0 19,-8.50659 19,-19 l 0,-6 c 0,-10.49341 -8.50659,-19 -19,-19 l -19,0 0,44 z" style="fill-rule:evenodd"/><path id="E" d="m 0,0 63,0 0,-13 -51,0 0,-18 40,0 0,-12 -40,0 0,-14 48,0 0,-13 -60,0 0,70 z" transform="translate(-31.5,0)"/><path id="M" d="m -31.5,0 12,0 0,-48 14,48 11,0 14,-48 0,48 12,0 0,-70 -17.5,0 -14,48 -14,-48 -17.5,0 0,70 z"/><path id="E_" d="m -26.25,0 52.5,0 0,-12 -40.5,0 0,-16 33,0 0,-12 -33,0 0,-11 39.25,0 0,-12 -51.25,0 0,63 z"/><path id="P" d="m -31.5,0 13,0 0,-26 28,0 c 12.150264,0 22,-9.849736 22,-22 0,-12.150264 -9.849736,-22 -22,-22 l -40,0 -1,70 z m 13,-39 27,0 c 4.970563,0 9,-4.029437 9,-9 0,-4.970563 -4.029437,-9 -9,-9 l -27,0 0,18 z" style="fill-rule:evenodd"/><g id="G"><clipPath id="gcut"><path id="path2451" d="m -31.5,0 0,-70 63,0 0,70 -63,0 z M 0,-47 l 0,12 31.5,0 0,-12 -31.5,0 z"/></clipPath><use id="use2453" width="4200" height="2940" x="0" y="0" clip-path="url(#gcut)" xlink:href="#O"/><rect id="rect2455" width="26.5" height="10" x="5" y="-35"/><rect id="rect2457" width="10" height="35" x="21.5" y="-35"/></g><path id="S" d="m -15.75,-22 c 0,7 6.75,10.5 16.75,10.5 10,0 14.74,-3.25 14.75,-7.75 C 15.75,-33.5 -31,-24.5 -30.75,-49.5 -30.5,-71 -6,-70 3,-70 c 9,0 26,4 25.75,21.25 l -15.25,0 c 0,-7.5 -7,-10.25 -15,-10.25 -7.75,0 -13.25,1.25 -13.25,8.5 -0.25,11.75 46.25,4 46.25,28.75 C 31.5,-3.5 13.5,0 0,0 -11.5,0 -31.55,-4.5 -31.5,-22 l 15.75,0 z"/><g id="star"><g id="cone"><polygon id="triangle" points="0 0 0 1 .5 1 0 0" transform="matrix(0.9510565,0.309017,-0.309017,0.9510565,0,-1)"/><use id="use2463" width="4200" height="2940" x="0" y="0" transform="scale(-1,1)" xlink:href="#triangle"/></g><use id="use2465" width="4200" height="2940" x="0" y="0" transform="matrix(0.309017,0.9510565,-0.9510565,0.309017,0,0)" xlink:href="#cone"/><use id="use2467" width="4200" height="2940" x="0" y="0" transform="matrix(0.309017,-0.9510565,0.9510565,0.309017,0,0)" xlink:href="#cone"/><use id="use2469" width="4200" height="2940" x="0" y="0" transform="matrix(-0.809017,0.5877853,-0.5877853,-0.809017,0,0)" xlink:href="#cone"/><use id="use2471" width="4200" height="2940" x="0" y="0" transform="matrix(-0.809017,-0.5877853,0.5877853,-0.809017,0,0)" xlink:href="#cone"/></g><use id="star1" width="4200" height="2940" x="0" y="0" transform="scale(31.5,31.5)" xlink:href="#star"/><use id="star2" width="4200" height="2940" x="0" y="0" transform="scale(26.25,26.25)" xlink:href="#star"/><use id="star3" width="4200" height="2940" x="0" y="0" transform="scale(21,21)" xlink:href="#star"/><use id="star4" width="4200" height="2940" x="0" y="0" transform="scale(15,15)" xlink:href="#star"/><use id="star5" width="4200" height="2940" x="0" y="0" transform="scale(10.5,10.5)" xlink:href="#star"/></defs><rect id="field" width="4200" height="2940" x="-2100" y="-1911" style="fill:#00923f"/><path id="rhombus" d="m -1743,-440.99997 1743,1113 1743,-1113 L 0,-1554 -1743,-440.99997 z" style="fill:#f8c300"/><circle id="circle" cx="0" cy="0" r="735" transform="translate(0,-440.99997)" style="fill:#28166f"/><clipPath id="clipcircle"><use id="use2482" width="4200" height="2940" x="0" y="0" transform="translate(0,440.99997)" xlink:href="#circle"/></clipPath><path id="band" d="m -2205,1470 c 0,-985.82827 799.1717,-1784.99997 1785,-1784.99997 985.82827,0 1785,799.1717 1785,1784.99997 l -105,0 c 0,-927.83838 -752.16162,-1680 -1680,-1680 -927.8384,0 -1680,752.16162 -1680,1680 l -105,0 z" clip-path="url(#clipcircle)" transform="translate(0,-440.99997)" style="fill:#fff"/><g id="g2485" transform="translate(-420,1029)" style="fill:#00923f"><g id="ORDEM" transform="matrix(0.9925462,-0.1218693,0.1218693,0.9925462,0,0)"><use id="use2488" width="4200" height="2940" x="0" y="0" transform="translate(0,-1697.5)" xlink:href="#O"/><use id="use2490" width="4200" height="2940" x="0" y="0" transform="matrix(0.9986295,0.05233596,-0.05233596,0.9986295,88.840286,-1695.1736)" xlink:href="#R"/><use id="use2492" width="4200" height="2940" x="0" y="0" transform="matrix(0.9945219,0.1045285,-0.1045285,0.9945219,177.43707,-1688.2009)" xlink:href="#D"/><use id="use2494" width="4200" height="2940" x="0" y="0" transform="matrix(0.9876883,0.1564345,-0.1564345,0.9876883,265.5475,-1676.601)" xlink:href="#E"/><use id="use2496" width="4200" height="2940" x="0" y="0" transform="matrix(0.9781476,0.2079117,-0.2079117,0.9781476,352.9301,-1660.4056)" xlink:href="#M"/></g><use id="use2498" width="4200" height="2940" x="0" y="0" transform="matrix(0.9855561,0.1693495,-0.1693495,0.9855561,287.47078,-1672.9814)" xlink:href="#E_"/><g id="PROGRESSO" transform="matrix(0.9681476,0.25038,-0.25038,0.9681476,0,0)"><use id="use2501" width="4200" height="2940" x="0" y="0" transform="translate(0,-1697.5)" xlink:href="#P"/><use id="use2503" width="4200" height="2940" x="0" y="0" transform="matrix(0.9986295,0.05233596,-0.05233596,0.9986295,88.840286,-1695.1736)" xlink:href="#R"/><use id="use2505" width="4200" height="2940" x="0" y="0" transform="matrix(0.9945219,0.1045285,-0.1045285,0.9945219,177.43707,-1688.2009)" xlink:href="#O"/><use id="use2507" width="4200" height="2940" x="0" y="0" transform="matrix(0.9876883,0.1564345,-0.1564345,0.9876883,265.5475,-1676.601)" xlink:href="#G"/><use id="use2509" width="4200" height="2940" x="0" y="0" transform="matrix(0.9781476,0.2079117,-0.2079117,0.9781476,352.9301,-1660.4056)" xlink:href="#R"/><use id="use2511" width="4200" height="2940" x="0" y="0" transform="matrix(0.9659258,0.258819,-0.258819,0.9659258,439.34533,-1639.6591)" xlink:href="#E"/><use id="use2513" width="4200" height="2940" x="0" y="0" transform="matrix(0.9510565,0.309017,-0.309017,0.9510565,524.55635,-1614.4184)" xlink:href="#S"/><use id="use2515" width="4200" height="2940" x="0" y="0" transform="matrix(0.9335804,0.3583679,-0.3583679,0.9335804,608.32959,-1584.7528)" xlink:href="#S"/><use id="use2517" width="4200" height="2940" x="0" y="0" transform="matrix(0.9135455,0.4067366,-0.4067366,0.9135455,690.43545,-1550.7434)" xlink:href="#O"/></g></g><g id="stars" transform="translate(0,-440.99997)" style="fill:#fff"><use id="Alpha_Canis_Minoris" width="4200" height="2940" x="0" y="0" transform="translate(-600,-132)" xlink:href="#star1"/><g id="Canis_Majoris"><use id="Alpha_Canis_Majoris" width="4200" height="2940" x="0" y="0" transform="translate(-535,177)" xlink:href="#star1"/><use id="Beta_Canis_Majoris" width="4200" height="2940" x="0" y="0" transform="translate(-625,243)" xlink:href="#star3"/><use id="Gamma_Canis_Majoris" width="4200" height="2940" x="0" y="0" transform="translate(-463,132)" xlink:href="#star4"/><use id="Delta_Canis_Majoris" width="4200" height="2940" x="0" y="0" transform="translate(-382,250)" xlink:href="#star2"/><use id="Epsilon_Canis_Majoris" width="4200" height="2940" x="0" y="0" transform="translate(-404,323)" xlink:href="#star2"/></g><use id="Alpha_Virginis" width="4200" height="2940" x="0" y="0" transform="translate(228,-228)" xlink:href="#star1"/><g id="Scorpio"><use id="Alpha_Scorpii" width="4200" height="2940" x="0" y="0" transform="translate(515,258)" xlink:href="#star1"/><use id="Beta_Scorpii" width="4200" height="2940" x="0" y="0" transform="translate(617,265)" xlink:href="#star3"/><use id="Epsilon_Scorpii" width="4200" height="2940" x="0" y="0" transform="translate(545,323)" xlink:href="#star2"/><use id="Theta_Scorpii" width="4200" height="2940" x="0" y="0" transform="translate(368,477)" xlink:href="#star2"/><use id="Iota_Scorpii" width="4200" height="2940" x="0" y="0" transform="translate(367,551)" xlink:href="#star3"/><use id="Kappa_Scorpii" width="4200" height="2940" x="0" y="0" transform="translate(441,419)" xlink:href="#star3"/><use id="Lambda_Scorpii" width="4200" height="2940" x="0" y="0" transform="translate(500,382)" xlink:href="#star2"/><use id="Mu_Scorpii" width="4200" height="2940" x="0" y="0" transform="translate(365,405)" xlink:href="#star3"/></g><g id="Hydra"><use id="Alpha_Hydrae" width="4200" height="2940" x="0" y="0" transform="translate(-280,30)" xlink:href="#star2"/><use id="Gamma_Hydrae" width="4200" height="2940" x="0" y="0" transform="translate(200,-37)" xlink:href="#star3"/></g><g id="Crux"><use id="Alpha_Crucis" width="4200" height="2940" x="0" y="0" transform="translate(0,330)" xlink:href="#star1"/><use id="Beta_Crucis" width="4200" height="2940" x="0" y="0" transform="translate(85,184)" xlink:href="#star2"/><use id="Gamma_Crucis" width="4200" height="2940" x="0" y="0" transform="translate(0,118)" xlink:href="#star2"/><use id="Delta_Crucis" width="4200" height="2940" x="0" y="0" transform="translate(-74,184)" xlink:href="#star3"/><use id="Epsilon_Crucis" width="4200" height="2940" x="0" y="0" transform="translate(-37,235)" xlink:href="#star4"/></g><g id="Triangulum_Australe"><use id="Alpha_Trianguli_Australe" width="4200" height="2940" x="0" y="0" transform="translate(220,495)" xlink:href="#star2"/><use id="Beta_Trianguli_Australe" width="4200" height="2940" x="0" y="0" transform="translate(283,430)" xlink:href="#star3"/><use id="Gamma_Trianguli_Australe" width="4200" height="2940" x="0" y="0" transform="translate(162,412)" xlink:href="#star3"/></g><use id="Alpha_Carinae" width="4200" height="2940" x="0" y="0" transform="translate(-295,390)" xlink:href="#star1"/><use id="Sigma_Octantis" width="4200" height="2940" x="0" y="0" transform="translate(0,575)" xlink:href="#star5"/></g></svg>