<svg xmlns="http://www.w3.org/2000/svg" xmlns:svg="http://www.w3.org/2000/svg" id="svg2" width="1003pt" height="544pt" version="1.1" viewBox="0 0 1003 544"><metadata id="metadata621"/><g id="node1" class="node" transform="translate(4,540)"><title id="title10">wger_utils_models_AbstractSubmissionModel</title><polygon id="polygon12" points="197 -130.5 197 -99.5 55 -99.5 55 -99.5 55 -130.5" style="fill:#eee8aa;stroke:none"/><polygon id="polygon14" points="197 -130 197 -112 55 -112 55 -112 55 -130" style="fill:#698b22;stroke:none"/><text id="text18" x="69.5" y="-120.1" font-size="8" style="font-size:8px;text-anchor:start;fill:#fff;font-family:Helvetica Bold">AbstractSubmissionModel</text><text id="text22" x="67" y="-104.6" font-size="8" style="font-size:8px;text-anchor:start;font-family:'Helvetica '">status</text><text id="text28" x="131" y="-104.6" font-size="8" style="font-size:8px;text-anchor:start;font-family:'Helvetica '">CharField</text></g><g id="node2" class="node" transform="translate(4,540)"><title id="title33">wger_utils_models_AbstractLicenseModel</title><polygon id="polygon35" points="969.5 -137 969.5 -93 806.5 -93 806.5 -93 806.5 -137" style="fill:#eee8aa;stroke:none"/><polygon id="polygon37" points="970 -137 970 -119 807 -119 807 -119 807 -137" style="fill:#698b22;stroke:none"/><text id="text41" x="840" y="-127.1" font-size="8" style="font-size:8px;text-anchor:start;fill:#fff;font-family:Helvetica Bold">AbstractLicenseModel</text><text id="text45" x="819" y="-111.6" font-size="8" style="font-size:8px;text-anchor:start;font-family:Helvetica Bold">license</text><text id="text51" x="896" y="-111.6" font-size="8" style="font-size:8px;text-anchor:start;font-family:Helvetica Bold">ForeignKey (id)</text><text id="text57" x="819" y="-98.6" font-size="8" style="font-size:8px;text-anchor:start;fill:#7b7b7b;font-family:'Helvetica '">license_author</text><text id="text63" x="896" y="-98.6" font-size="8" style="font-size:8px;text-anchor:start;fill:#7b7b7b;font-family:'Helvetica '">CharField</text></g><g id="node3" class="node" transform="translate(4,540)"><title id="title68">wger_core_models_License</title><polygon id="polygon70" points="913.5 -27 913.5 -9 862.5 -9 862.5 -9 862.5 -27" style="fill:#eee8aa;stroke:none"/><polygon id="polygon72" points="914 -27 914 -9 863 -9 863 -9 863 -27" style="fill:#698b22;stroke:none"/><text id="text76" x="873" y="-17.1" font-size="8" style="font-size:8px;text-anchor:start;fill:#fff;font-family:Helvetica Bold">License</text></g><g id="edge1" class="edge" transform="translate(4,540)"><title id="title81">wger_utils_models_AbstractLicenseModel-&gt;wger_core_models_License</title><path id="path83" d="m 888,-80.4662 c 0,14.9903 0,32.0174 0,44.3432" style="fill:none;stroke:#000"/><ellipse id="ellipse85" cx="888" cy="-84.542" d="m 892,-84.541702 c 0,2.209139 -1.79086,4 -4,4 -2.20914,0 -4,-1.790861 -4,-4 0,-2.209139 1.79086,-4 4,-4 2.20914,0 4,1.790861 4,4 z" rx="4" ry="4" style="fill:#000;stroke:#000"/><text id="text87" x="941.5" y="-57.1" font-size="8" style="font-size:8px;text-anchor:middle;font-family:'Helvetica,sans-Serif'">license (abstractlicensemodel)</text></g><g id="node4" class="node" transform="translate(4,540)"><title id="title90">wger_exercises_models_Muscle</title><polygon id="polygon92" points="760.5 -143.5 760.5 -86.5 637.5 -86.5 637.5 -86.5 637.5 -143.5" style="fill:#eee8aa;stroke:none"/><polygon id="polygon94" points="761 -143 761 -125 638 -125 638 -125 638 -143" style="fill:#698b22;stroke:none"/><text id="text98" x="681.5" y="-133.1" font-size="8" style="font-size:8px;text-anchor:start;fill:#fff;font-family:Helvetica Bold">Muscle</text><text id="text102" x="650" y="-117.6" font-size="8" style="font-size:8px;text-anchor:start;font-family:Helvetica Bold">id</text><text id="text108" x="702" y="-117.6" font-size="8" style="font-size:8px;text-anchor:start;font-family:Helvetica Bold">AutoField</text><text id="text114" x="650" y="-104.6" font-size="8" style="font-size:8px;text-anchor:start;fill:#7b7b7b;font-family:'Helvetica '">is_front</text><text id="text120" x="702" y="-104.6" font-size="8" style="font-size:8px;text-anchor:start;fill:#7b7b7b;font-family:'Helvetica '">BooleanField</text><text id="text126" x="650" y="-91.6" font-size="8" style="font-size:8px;text-anchor:start;font-family:'Helvetica '">name</text><text id="text132" x="702" y="-91.6" font-size="8" style="font-size:8px;text-anchor:start;font-family:'Helvetica '">CharField</text></g><g id="node5" class="node" transform="translate(4,540)"><title id="title137">wger_exercises_models_Equipment</title><polygon id="polygon139" points="341 -137 341 -93 231 -93 231 -93 231 -137" style="fill:#eee8aa;stroke:none"/><polygon id="polygon141" points="341 -137 341 -119 231 -119 231 -119 231 -137" style="fill:#698b22;stroke:none"/><text id="text145" x="260.5" y="-127.1" font-size="8" style="font-size:8px;text-anchor:start;fill:#fff;font-family:Helvetica Bold">Equipment</text><text id="text149" x="243" y="-111.6" font-size="8" style="font-size:8px;text-anchor:start;font-family:Helvetica Bold">id</text><text id="text155" x="289" y="-111.6" font-size="8" style="font-size:8px;text-anchor:start;font-family:Helvetica Bold">AutoField</text><text id="text161" x="243" y="-98.6" font-size="8" style="font-size:8px;text-anchor:start;font-family:'Helvetica '">name</text><text id="text167" x="289" y="-98.6" font-size="8" style="font-size:8px;text-anchor:start;font-family:'Helvetica '">CharField</text></g><g id="node6" class="node" transform="translate(4,540)"><title id="title172">wger_exercises_models_ExerciseCategory</title><polygon id="polygon174" points="485 -137 485 -93 375 -93 375 -93 375 -137" style="fill:#eee8aa;stroke:none"/><polygon id="polygon176" points="485 -137 485 -119 375 -119 375 -119 375 -137" style="fill:#698b22;stroke:none"/><text id="text180" x="391" y="-127.1" font-size="8" style="font-size:8px;text-anchor:start;fill:#fff;font-family:Helvetica Bold">ExerciseCategory</text><text id="text184" x="387" y="-111.6" font-size="8" style="font-size:8px;text-anchor:start;font-family:Helvetica Bold">id</text><text id="text190" x="433" y="-111.6" font-size="8" style="font-size:8px;text-anchor:start;font-family:Helvetica Bold">AutoField</text><text id="text196" x="387" y="-98.6" font-size="8" style="font-size:8px;text-anchor:start;font-family:'Helvetica '">name</text><text id="text202" x="433" y="-98.6" font-size="8" style="font-size:8px;text-anchor:start;font-family:'Helvetica '">CharField</text></g><g id="node7" class="node" transform="translate(4,540)"><title id="title207">wger_exercises_models_Exercise</title><polygon id="polygon209" points="545 -361.5 545 -206.5 345 -206.5 345 -206.5 345 -361.5" style="fill:#eee8aa;stroke:none"/><polygon id="polygon211" points="545 -361 545 -336 345 -336 345 -336 345 -361" style="fill:#698b22;stroke:none"/><text id="text215" x="428.5" y="-351.1" font-size="8" style="font-size:8px;text-anchor:start;fill:#fff;font-family:Helvetica Bold">Exercise</text><text id="text217" x="349.5" y="-343.1" font-size="8" style="font-size:8px;text-anchor:start;fill:#fff;font-family:Helvetica Bold">&lt;</text><text id="text219" x="354.5" y="-343.1" font-size="8" style="font-size:8px;text-anchor:start;fill:#fff;font-family:Helvetica Italic">AbstractSubmissionModel,AbstractLicenseModel</text><text id="text221" x="526.5" y="-343.1" font-size="8" style="font-size:8px;text-anchor:start;fill:#fff;font-family:Helvetica Bold">&gt;</text><text id="text225" x="357" y="-328.6" font-size="8" style="font-size:8px;text-anchor:start;font-family:Helvetica Bold">id</text><text id="text231" x="452" y="-328.6" font-size="8" style="font-size:8px;text-anchor:start;font-family:Helvetica Bold">AutoField</text><text id="text237" x="357" y="-315.6" font-size="8" style="font-size:8px;text-anchor:start;font-family:Helvetica Bold">category</text><text id="text243" x="452" y="-315.6" font-size="8" style="font-size:8px;text-anchor:start;font-family:Helvetica Bold">ForeignKey (id)</text><text id="text249" x="357" y="-302.6" font-size="8" style="font-size:8px;text-anchor:start;font-family:Helvetica Bold">language</text><text id="text255" x="452" y="-302.6" font-size="8" style="font-size:8px;text-anchor:start;font-family:Helvetica Bold">ForeignKey (id)</text><text id="text261" x="357" y="-289.6" font-size="8" style="font-size:8px;text-anchor:start;font-family:Helvetica ItalicBold">license</text><text id="text267" x="452" y="-289.6" font-size="8" style="font-size:8px;text-anchor:start;font-family:Helvetica ItalicBold">ForeignKey (id)</text><text id="text273" x="357" y="-276.6" font-size="8" style="font-size:8px;text-anchor:start;fill:#7b7b7b;font-family:'Helvetica '">creation_date</text><text id="text279" x="452" y="-276.6" font-size="8" style="font-size:8px;text-anchor:start;fill:#7b7b7b;font-family:'Helvetica '">DateField</text><text id="text285" x="357" y="-263.6" font-size="8" style="font-size:8px;text-anchor:start;font-family:'Helvetica '">description</text><text id="text291" x="452" y="-263.6" font-size="8" style="font-size:8px;text-anchor:start;font-family:'Helvetica '">TextField</text><text id="text297" x="357" y="-250.6" font-size="8" style="font-size:8px;text-anchor:start;fill:#7b7b7b;font-family:Helvetica Italic">license_author</text><text id="text303" x="452" y="-250.6" font-size="8" style="font-size:8px;text-anchor:start;fill:#7b7b7b;font-family:Helvetica Italic">CharField</text><text id="text309" x="357" y="-237.6" font-size="8" style="font-size:8px;text-anchor:start;font-family:'Helvetica '">name</text><text id="text315" x="452" y="-237.6" font-size="8" style="font-size:8px;text-anchor:start;font-family:'Helvetica '">CharField</text><text id="text321" x="357" y="-224.6" font-size="8" style="font-size:8px;text-anchor:start;font-family:Helvetica Italic">status</text><text id="text327" x="452" y="-224.6" font-size="8" style="font-size:8px;text-anchor:start;font-family:Helvetica Italic">CharField</text><text id="text333" x="357" y="-211.6" font-size="8" style="font-size:8px;text-anchor:start;font-family:'Helvetica '">uuid</text><text id="text339" x="452" y="-211.6" font-size="8" style="font-size:8px;text-anchor:start;font-family:'Helvetica '">CharField</text></g><g id="edge2" class="edge" transform="translate(4,540)"><title id="title344">wger_exercises_models_Exercise-&gt;wger_utils_models_AbstractSubmissionModel</title><path id="path346" d="m 336.556,-226.228 c -56.709,29.687 -123.043,64.414 -165.874,86.837" style="fill:none;stroke:#000"/><polygon id="polygon348" points="168.882 -142.4 172.129 -136.198 172.129 -136.198 161.646 -134.661" style="fill:none;stroke:#000"/><text id="text350" x="268" y="-177.6" font-size="8" style="font-size:8px;text-anchor:middle;font-family:'Helvetica,sans-Serif'">abstract</text><text id="text352" x="268" y="-168.6" font-size="8" style="font-size:8px;text-anchor:middle;font-family:'Helvetica,sans-Serif'">inheritance</text></g><g id="edge3" class="edge" transform="translate(4,540)"><title id="title355">wger_exercises_models_Exercise-&gt;wger_utils_models_AbstractLicenseModel</title><path id="path357" d="m 553.192,-266.904 c 75.27,14.297 176.178,39.8 256.808,82.904 17.217,9.204 33.873,22.848 47.341,35.503" style="fill:none;stroke:#000"/><polygon id="polygon359" points="855.262 -145.639 860.129 -150.67 860.129 -150.67 864.882 -141.201" style="fill:none;stroke:#000"/><text id="text361" x="856" y="-177.6" font-size="8" style="font-size:8px;text-anchor:middle;font-family:'Helvetica,sans-Serif'">abstract</text><text id="text363" x="856" y="-168.6" font-size="8" style="font-size:8px;text-anchor:middle;font-family:'Helvetica,sans-Serif'">inheritance</text></g><g id="edge4" class="edge" transform="translate(4,540)"><title id="title366">wger_exercises_models_Exercise-&gt;wger_exercises_models_Muscle</title><path id="path368" d="m 561.269,-274.685 c 62.069,11.062 133.554,35.853 172.731,90.685 6.46,9.041 4.956,19.438 0.004,29.338" style="fill:none;stroke:#000"/><ellipse id="ellipse370" cx="557.303" cy="-275.359" d="m 561.30299,-275.35901 c 0,2.20915 -1.79087,4.00001 -4.00001,4.00001 -2.20915,0 -4.00001,-1.79086 -4.00001,-4.00001 0,-2.20914 1.79086,-4.00001 4.00001,-4.00001 2.20914,0 4.00001,1.79087 4.00001,4.00001 z" rx="4" ry="4" style="fill:#000;stroke:#000"/><ellipse id="ellipse372" cx="731.874" cy="-151.02" d="m 735.87404,-151.02 c 0,2.20915 -1.79087,4.00002 -4.00002,4.00002 -2.20915,0 -4.00002,-1.79087 -4.00002,-4.00002 0,-2.20915 1.79087,-4.00002 4.00002,-4.00002 2.20915,0 4.00002,1.79087 4.00002,4.00002 z" rx="4" ry="4" style="fill:#000;stroke:#000"/><text id="text374" x="772.5" y="-173.1" font-size="8" style="font-size:8px;text-anchor:middle;font-family:'Helvetica,sans-Serif'">muscles (exercise)</text></g><g id="edge5" class="edge" transform="translate(4,540)"><title id="title377">wger_exercises_models_Exercise-&gt;wger_exercises_models_Muscle</title><path id="path379" d="m 548.34,-196.92 c 4.979,4.342 9.889,8.665 14.66,12.92 8.682,7.742 9.277,11.614 19,18 12.307,8.083 26.137,15.346 39.863,21.669" style="fill:none;stroke:#000"/><ellipse id="ellipse381" cx="545.019" cy="-199.804" d="m 549.019,-199.804 c 0,2.20915 -1.79087,4.00002 -4.00002,4.00002 -2.20915,0 -4.00002,-1.79087 -4.00002,-4.00002 0,-2.20915 1.79087,-4.00002 4.00002,-4.00002 2.20915,0 4.00002,1.79087 4.00002,4.00002 z" rx="4" ry="4" style="fill:#000;stroke:#000"/><ellipse id="ellipse383" cx="625.819" cy="-142.554" d="m 629.81899,-142.554 c 0,2.20915 -1.79087,4.00002 -4.00002,4.00002 -2.20915,0 -4.00002,-1.79087 -4.00002,-4.00002 0,-2.20915 1.79087,-4.00002 4.00002,-4.00002 2.20915,0 4.00002,1.79087 4.00002,4.00002 z" rx="4" ry="4" style="fill:#000;stroke:#000"/><text id="text385" x="656" y="-173.1" font-size="8" style="font-size:8px;text-anchor:middle;font-family:'Helvetica,sans-Serif'">muscles_secondary (secondary_muscles)</text></g><g id="edge6" class="edge" transform="translate(4,540)"><title id="title388">wger_exercises_models_Exercise-&gt;wger_exercises_models_Equipment</title><path id="path390" d="m 331.345,-198.105 c -4.338,4.599 -8.479,9.307 -12.345,14.105 -8.443,10.477 -15.417,23.47 -20.744,35.284" style="fill:none;stroke:#000"/><ellipse id="ellipse392" cx="334.154" cy="-201" d="m 338.15401,-201 c 0,2.20915 -1.79087,4.00002 -4.00002,4.00002 -2.20915,0 -4.00002,-1.79087 -4.00002,-4.00002 0,-2.20915 1.79087,-4.00002 4.00002,-4.00002 2.20915,0 4.00002,1.79087 4.00002,4.00002 z" rx="4" ry="4" style="fill:#000;stroke:#000"/><ellipse id="ellipse394" cx="296.58" cy="-144.834" d="m 300.58001,-144.834 c 0,2.20915 -1.79087,4.00002 -4.00002,4.00002 -2.20915,0 -4.00002,-1.79087 -4.00002,-4.00002 0,-2.20915 1.79087,-4.00002 4.00002,-4.00002 2.20915,0 4.00002,1.79087 4.00002,4.00002 z" rx="4" ry="4" style="fill:#000;stroke:#000"/><text id="text396" x="357" y="-173.1" font-size="8" style="font-size:8px;text-anchor:middle;font-family:'Helvetica,sans-Serif'">equipment (exercise)</text></g><g id="edge7" class="edge" transform="translate(4,540)"><title id="title399">wger_exercises_models_Exercise-&gt;wger_exercises_models_ExerciseCategory</title><path id="path401" d="m 402.672,-194.613 c -1.011,3.547 -1.909,7.093 -2.672,10.613 -1.694,7.819 -2.135,10.29 0,18 2.378,8.585 6.666,17.176 11.27,24.755" style="fill:none;stroke:#000"/><ellipse id="ellipse403" cx="403.879" cy="-198.548" d="m 407.87901,-198.548 c 0,2.20914 -1.79087,4.00001 -4.00001,4.00001 -2.20915,0 -4.00001,-1.79087 -4.00001,-4.00001 0,-2.20915 1.79086,-4.00001 4.00001,-4.00001 2.20914,0 4.00001,1.79086 4.00001,4.00001 z" rx="4" ry="4" style="fill:#000;stroke:#000"/><text id="text405" x="434.5" y="-173.1" font-size="8" style="font-size:8px;text-anchor:middle;font-family:'Helvetica,sans-Serif'">category (exercise)</text></g><g id="node8" class="node" transform="translate(4,540)"><title id="title408">wger_core_models_Language</title><polygon id="polygon410" points="578.5 -124 578.5 -106 519.5 -106 519.5 -106 519.5 -124" style="fill:#eee8aa;stroke:none"/><polygon id="polygon412" points="579 -124 579 -106 520 -106 520 -106 520 -124" style="fill:#698b22;stroke:none"/><text id="text416" x="529.5" y="-114.1" font-size="8" style="font-size:8px;text-anchor:start;fill:#fff;font-family:Helvetica Bold">Language</text></g><g id="edge8" class="edge" transform="translate(4,540)"><title id="title421">wger_exercises_models_Exercise-&gt;wger_core_models_Language</title><path id="path423" d="m 475.064,-194.929 c 4.985,10.136 10.623,20.017 16.936,28.929 8.903,12.567 21.574,24.091 32.709,32.9" style="fill:none;stroke:#000"/><ellipse id="ellipse425" cx="473.262" cy="-198.729" d="m 477.26201,-198.729 c 0,2.20915 -1.79087,4.00002 -4.00002,4.00002 -2.20915,0 -4.00002,-1.79087 -4.00002,-4.00002 0,-2.20915 1.79087,-4.00002 4.00002,-4.00002 2.20915,0 4.00002,1.79087 4.00002,4.00002 z" rx="4" ry="4" style="fill:#000;stroke:#000"/><text id="text427" x="527.5" y="-173.1" font-size="8" style="font-size:8px;text-anchor:middle;font-family:'Helvetica,sans-Serif'">language (exercise)</text></g><g id="node9" class="node" transform="translate(4,540)"><title id="title430">wger_exercises_models_ExerciseImage</title><polygon id="polygon432" points="545 -532 545 -416 345 -416 345 -416 345 -532" style="fill:#eee8aa;stroke:none"/><polygon id="polygon434" points="545 -532 545 -507 345 -507 345 -507 345 -532" style="fill:#698b22;stroke:none"/><text id="text438" x="417" y="-522.1" font-size="8" style="font-size:8px;text-anchor:start;fill:#fff;font-family:Helvetica Bold">ExerciseImage</text><text id="text440" x="349.5" y="-514.1" font-size="8" style="font-size:8px;text-anchor:start;fill:#fff;font-family:Helvetica Bold">&lt;</text><text id="text442" x="354.5" y="-514.1" font-size="8" style="font-size:8px;text-anchor:start;fill:#fff;font-family:Helvetica Italic">AbstractSubmissionModel,AbstractLicenseModel</text><text id="text444" x="526.5" y="-514.1" font-size="8" style="font-size:8px;text-anchor:start;fill:#fff;font-family:Helvetica Bold">&gt;</text><text id="text448" x="357" y="-499.6" font-size="8" style="font-size:8px;text-anchor:start;font-family:Helvetica Bold">id</text><text id="text454" x="452" y="-499.6" font-size="8" style="font-size:8px;text-anchor:start;font-family:Helvetica Bold">AutoField</text><text id="text460" x="357" y="-486.6" font-size="8" style="font-size:8px;text-anchor:start;font-family:Helvetica Bold">exercise</text><text id="text466" x="452" y="-486.6" font-size="8" style="font-size:8px;text-anchor:start;font-family:Helvetica Bold">ForeignKey (id)</text><text id="text472" x="357" y="-473.6" font-size="8" style="font-size:8px;text-anchor:start;font-family:Helvetica ItalicBold">license</text><text id="text478" x="452" y="-473.6" font-size="8" style="font-size:8px;text-anchor:start;font-family:Helvetica ItalicBold">ForeignKey (id)</text><text id="text484" x="357" y="-460.6" font-size="8" style="font-size:8px;text-anchor:start;font-family:'Helvetica '">image</text><text id="text490" x="452" y="-460.6" font-size="8" style="font-size:8px;text-anchor:start;font-family:'Helvetica '">ImageField</text><text id="text496" x="357" y="-447.6" font-size="8" style="font-size:8px;text-anchor:start;fill:#7b7b7b;font-family:'Helvetica '">is_main</text><text id="text502" x="452" y="-447.6" font-size="8" style="font-size:8px;text-anchor:start;fill:#7b7b7b;font-family:'Helvetica '">BooleanField</text><text id="text508" x="357" y="-434.6" font-size="8" style="font-size:8px;text-anchor:start;fill:#7b7b7b;font-family:Helvetica Italic">license_author</text><text id="text514" x="452" y="-434.6" font-size="8" style="font-size:8px;text-anchor:start;fill:#7b7b7b;font-family:Helvetica Italic">CharField</text><text id="text520" x="357" y="-421.6" font-size="8" style="font-size:8px;text-anchor:start;font-family:Helvetica Italic">status</text><text id="text526" x="452" y="-421.6" font-size="8" style="font-size:8px;text-anchor:start;font-family:Helvetica Italic">CharField</text></g><g id="edge9" class="edge" transform="translate(4,540)"><title id="title531">wger_exercises_models_ExerciseImage-&gt;wger_utils_models_AbstractSubmissionModel</title><path id="path533" d="m 342.35,-411.781 c -19.164,13.782 -38.214,29.265 -54.35,45.781 -68.446,70.056 -124.277,173.271 -148.701,222.25" style="fill:none;stroke:#000"/><polygon id="polygon535" points="136.121 -145.22 142.399 -142.125 142.399 -142.125 134.838 -134.703" style="fill:none;stroke:#000"/><text id="text537" x="308" y="-286.6" font-size="8" style="font-size:8px;text-anchor:middle;font-family:'Helvetica,sans-Serif'">abstract</text><text id="text539" x="308" y="-277.6" font-size="8" style="font-size:8px;text-anchor:middle;font-family:'Helvetica,sans-Serif'">inheritance</text></g><g id="edge10" class="edge" transform="translate(4,540)"><title id="title542">wger_exercises_models_ExerciseImage-&gt;wger_utils_models_AbstractLicenseModel</title><path id="path544" d="m 553.02,-432.67 c 102.473,44.349 251.655,126.017 326.98,248.67 5.893,9.595 8.52,21.4 9.491,32.465" style="fill:none;stroke:#000"/><polygon id="polygon546" points="886.009 -151.076 893.001 -151.4 893.001 -151.4 889.968 -141.249" style="fill:none;stroke:#000"/><text id="text548" x="888" y="-286.6" font-size="8" style="font-size:8px;text-anchor:middle;font-family:'Helvetica,sans-Serif'">abstract</text><text id="text550" x="888" y="-277.6" font-size="8" style="font-size:8px;text-anchor:middle;font-family:'Helvetica,sans-Serif'">inheritance</text></g><g id="edge11" class="edge" transform="translate(4,540)"><title id="title553">wger_exercises_models_ExerciseImage-&gt;wger_exercises_models_Exercise</title><path id="path555" d="m 445,-403.875 c 0,12.459 0,25.545 0,38.296" style="fill:none;stroke:#000"/><ellipse id="ellipse557" cx="445" cy="-407.962" d="m 449,-407.96201 c 0,2.20914 -1.79086,4 -4,4 -2.20914,0 -4,-1.79086 -4,-4 0,-2.20913 1.79086,-4 4,-4 2.20914,0 4,1.79087 4,4 z" rx="4" ry="4" style="fill:#000;stroke:#000"/><text id="text559" x="489.5" y="-387.1" font-size="8" style="font-size:8px;text-anchor:middle;font-family:'Helvetica,sans-Serif'">exercise (exerciseimage)</text></g><g id="node10" class="node" transform="translate(4,540)"><title id="title562">wger_exercises_models_ExerciseComment</title><polygon id="polygon564" points="152.5 -502.5 152.5 -445.5 7.5 -445.5 7.5 -445.5 7.5 -502.5" style="fill:#eee8aa;stroke:none"/><polygon id="polygon566" points="153 -502 153 -484 8 -484 8 -484 8 -502" style="fill:#698b22;stroke:none"/><text id="text570" x="41" y="-492.1" font-size="8" style="font-size:8px;text-anchor:start;fill:#fff;font-family:Helvetica Bold">ExerciseComment</text><text id="text574" x="20" y="-476.6" font-size="8" style="font-size:8px;text-anchor:start;font-family:Helvetica Bold">id</text><text id="text580" x="79" y="-476.6" font-size="8" style="font-size:8px;text-anchor:start;font-family:Helvetica Bold">AutoField</text><text id="text586" x="20" y="-463.6" font-size="8" style="font-size:8px;text-anchor:start;font-family:Helvetica Bold">exercise</text><text id="text592" x="79" y="-463.6" font-size="8" style="font-size:8px;text-anchor:start;font-family:Helvetica Bold">ForeignKey (id)</text><text id="text598" x="20" y="-450.6" font-size="8" style="font-size:8px;text-anchor:start;font-family:'Helvetica '">comment</text><text id="text604" x="79" y="-450.6" font-size="8" style="font-size:8px;text-anchor:start;font-family:'Helvetica '">CharField</text></g><g id="edge12" class="edge" transform="translate(4,540)"><title id="title609">wger_exercises_models_ExerciseComment-&gt;wger_exercises_models_Exercise</title><path id="path611" d="m 148.826,-437.55 c 52.907,27.251 126.995,65.411 187.833,96.747" style="fill:none;stroke:#000"/><ellipse id="ellipse613" cx="145.061" cy="-439.489" d="m 149.06102,-439.48901 c 0,2.20915 -1.79087,4.00002 -4.00002,4.00002 -2.20915,0 -4.00002,-1.79087 -4.00002,-4.00002 0,-2.20915 1.79087,-4.00002 4.00002,-4.00002 2.20915,0 4.00002,1.79087 4.00002,4.00002 z" rx="4" ry="4" style="fill:#000;stroke:#000"/><text id="text615" x="302" y="-387.1" font-size="8" style="font-size:8px;text-anchor:middle;font-family:'Helvetica,sans-Serif'">exercise (exercisecomment)</text></g></svg>