<svg xmlns="http://www.w3.org/2000/svg" xmlns:xlink="http://www.w3.org/1999/xlink" width="1060pt" height="740pt" viewBox="0 0 1059.5 740"><g id="graph0" class="graph" transform="scale(1 1) rotate(0) translate(4 736)"><title>model_graph</title><polygon fill="#fff" stroke="none" points="-4 4 -4 -736 1055.5 -736 1055.5 4 -4 4"/><g id="node1" class="node"><title>wger_manager_models_Workout</title><polygon fill="#eee8aa" stroke="none" points="487 -98 487 -167 646 -167 646 -98 487 -98"/><polygon fill="#698b22" stroke="none" points="487.5 -149.5 487.5 -166.5 646.5 -166.5 646.5 -149.5 487.5 -149.5"/><text x="546" y="-157.1" fill="#fff" font-family="Helvetica Bold" font-size="8" text-anchor="start">Workout</text><text x="499.5" y="-142.1" font-family="Helvetica Bold" font-size="8" text-anchor="start">id</text><text x="572.5" y="-142.1" font-family="Helvetica Bold" font-size="8" text-anchor="start">AutoField</text><text x="499.5" y="-129.1" font-family="Helvetica Bold" font-size="8" text-anchor="start">user</text><text x="572.5" y="-129.1" font-family="Helvetica Bold" font-size="8" text-anchor="start">ForeignKey (id)</text><text x="499.5" y="-116.1" fill="#7b7b7b" font-family="Helvetica" font-size="8" text-anchor="start">comment</text><text x="572.5" y="-116.1" fill="#7b7b7b" font-family="Helvetica" font-size="8" text-anchor="start">CharField</text><text x="499.5" y="-103.1" fill="#7b7b7b" font-family="Helvetica" font-size="8" text-anchor="start">creation_date</text><text x="572.5" y="-103.1" fill="#7b7b7b" font-family="Helvetica" font-size="8" text-anchor="start">DateField</text></g><g id="node2" class="node"><title>django_contrib_auth_models_User</title><polygon fill="#eee8aa" stroke="none" points="635.5 -9.5 635.5 -26.5 673.5 -26.5 673.5 -9.5 635.5 -9.5"/><polygon fill="#698b22" stroke="none" points="635.5 -9 635.5 -26 673.5 -26 673.5 -9 635.5 -9"/><text x="645" y="-16.6" fill="#fff" font-family="Helvetica Bold" font-size="8" text-anchor="start">User</text></g><g id="edge1" class="edge"><title>wger_manager_models_Workout-&gt;django_contrib_auth_models_User</title><path fill="none" stroke="#000" d="M601.144,-87.2113C615.17,-69.2803 630.526,-49.6491 641.147,-36.0701"/><ellipse cx="598.512" cy="-90.576" fill="#000" stroke="#000" rx="4" ry="4"/><text x="653" y="-56.6" font-family="Helvetica,sans-Serif" font-size="8" text-anchor="middle">user (workout)</text></g><g id="node3" class="node"><title>wger_manager_models_Schedule</title><polygon fill="#eee8aa" stroke="none" points="38 -85 38 -180 185 -180 185 -85 38 -85"/><polygon fill="#698b22" stroke="none" points="38.5 -162.5 38.5 -179.5 185.5 -179.5 185.5 -162.5 38.5 -162.5"/><text x="89.5" y="-170.1" fill="#fff" font-family="Helvetica Bold" font-size="8" text-anchor="start">Schedule</text><text x="50.5" y="-155.1" font-family="Helvetica Bold" font-size="8" text-anchor="start">id</text><text x="111.5" y="-155.1" font-family="Helvetica Bold" font-size="8" text-anchor="start">AutoField</text><text x="50.5" y="-142.1" font-family="Helvetica Bold" font-size="8" text-anchor="start">user</text><text x="111.5" y="-142.1" font-family="Helvetica Bold" font-size="8" text-anchor="start">ForeignKey (id)</text><text x="50.5" y="-129.1" fill="#7b7b7b" font-family="Helvetica" font-size="8" text-anchor="start">is_active</text><text x="111.5" y="-129.1" fill="#7b7b7b" font-family="Helvetica" font-size="8" text-anchor="start">BooleanField</text><text x="50.5" y="-116.1" fill="#7b7b7b" font-family="Helvetica" font-size="8" text-anchor="start">is_loop</text><text x="111.5" y="-116.1" fill="#7b7b7b" font-family="Helvetica" font-size="8" text-anchor="start">BooleanField</text><text x="50.5" y="-103.1" font-family="Helvetica" font-size="8" text-anchor="start">name</text><text x="111.5" y="-103.1" font-family="Helvetica" font-size="8" text-anchor="start">CharField</text><text x="50.5" y="-90.1" font-family="Helvetica" font-size="8" text-anchor="start">start_date</text><text x="111.5" y="-90.1" font-family="Helvetica" font-size="8" text-anchor="start">Html5DateField</text></g><g id="edge2" class="edge"><title>wger_manager_models_Schedule-&gt;django_contrib_auth_models_User</title><path fill="none" stroke="#000" d="M200.794,-84.9953C204.709,-83.5479 208.621,-82.2062 212.5,-81 364.553,-33.7135 557.307,-22.3923 627.437,-19.7658"/><ellipse cx="197.001" cy="-86.46" fill="#000" stroke="#000" rx="4" ry="4"/><text x="347.5" y="-56.6" font-family="Helvetica,sans-Serif" font-size="8" text-anchor="middle">user (schedule)</text></g><g id="node4" class="node"><title>wger_manager_models_ScheduleStep</title><polygon fill="#eee8aa" stroke="none" points="8 -252.5 8 -334.5 155 -334.5 155 -252.5 8 -252.5"/><polygon fill="#698b22" stroke="none" points="8.5 -317.5 8.5 -334.5 155.5 -334.5 155.5 -317.5 8.5 -317.5"/><text x="50.5" y="-325.1" fill="#fff" font-family="Helvetica Bold" font-size="8" text-anchor="start">ScheduleStep</text><text x="20.5" y="-310.1" font-family="Helvetica Bold" font-size="8" text-anchor="start">id</text><text x="81.5" y="-310.1" font-family="Helvetica Bold" font-size="8" text-anchor="start">AutoField</text><text x="20.5" y="-297.1" font-family="Helvetica Bold" font-size="8" text-anchor="start">schedule</text><text x="81.5" y="-297.1" font-family="Helvetica Bold" font-size="8" text-anchor="start">ForeignKey (id)</text><text x="20.5" y="-284.1" font-family="Helvetica Bold" font-size="8" text-anchor="start">workout</text><text x="81.5" y="-284.1" font-family="Helvetica Bold" font-size="8" text-anchor="start">ForeignKey (id)</text><text x="20.5" y="-271.1" font-family="Helvetica" font-size="8" text-anchor="start">duration</text><text x="81.5" y="-271.1" font-family="Helvetica" font-size="8" text-anchor="start">IntegerField</text><text x="20.5" y="-258.1" font-family="Helvetica" font-size="8" text-anchor="start">order</text><text x="81.5" y="-258.1" font-family="Helvetica" font-size="8" text-anchor="start">IntegerField</text></g><g id="edge3" class="edge"><title>wger_manager_models_ScheduleStep-&gt;wger_manager_models_Workout</title><path fill="none" stroke="#000" d="M142.061,-244.089C151.514,-238.245 161.481,-232.955 171.5,-229 225.754,-207.581 244.465,-223.219 301.5,-211 335.364,-203.745 415.43,-179.988 478.75,-160.67"/><ellipse cx="138.644" cy="-246.275" fill="#000" stroke="#000" rx="4" ry="4"/><text x="376.5" y="-204.6" font-family="Helvetica,sans-Serif" font-size="8" text-anchor="middle">workout (schedulestep)</text></g><g id="edge4" class="edge"><title>wger_manager_models_ScheduleStep-&gt;wger_manager_models_Schedule</title><path fill="none" stroke="#000" d="M91.3897,-240.085C94.7938,-222.043 98.5967,-201.888 101.971,-184.001"/><ellipse cx="90.598" cy="-244.279" fill="#000" stroke="#000" rx="4" ry="4"/><text x="142" y="-204.6" font-family="Helvetica,sans-Serif" font-size="8" text-anchor="middle">schedule (schedulestep)</text></g><g id="node5" class="node"><title>wger_manager_models_Day</title><polygon fill="#eee8aa" stroke="none" points="189 -265.5 189 -321.5 338 -321.5 338 -265.5 189 -265.5"/><polygon fill="#698b22" stroke="none" points="189.5 -304.5 189.5 -321.5 338.5 -321.5 338.5 -304.5 189.5 -304.5"/><text x="252" y="-312.1" fill="#fff" font-family="Helvetica Bold" font-size="8" text-anchor="start">Day</text><text x="201.5" y="-297.1" font-family="Helvetica Bold" font-size="8" text-anchor="start">id</text><text x="264.5" y="-297.1" font-family="Helvetica Bold" font-size="8" text-anchor="start">AutoField</text><text x="201.5" y="-284.1" font-family="Helvetica Bold" font-size="8" text-anchor="start">training</text><text x="264.5" y="-284.1" font-family="Helvetica Bold" font-size="8" text-anchor="start">ForeignKey (id)</text><text x="201.5" y="-271.1" font-family="Helvetica" font-size="8" text-anchor="start">description</text><text x="264.5" y="-271.1" font-family="Helvetica" font-size="8" text-anchor="start">CharField</text></g><g id="edge5" class="edge"><title>wger_manager_models_Day-&gt;wger_manager_models_Workout</title><path fill="none" stroke="#000" d="M308.79,-256.464C323.097,-246.422 339.391,-236.282 355.5,-229 385.557,-215.413 396.829,-223.137 427.5,-211 454.733,-200.224 483.244,-185.084 507.307,-171.043"/><ellipse cx="305.187" cy="-259.044" fill="#000" stroke="#000" rx="4" ry="4"/><text x="471.5" y="-204.6" font-family="Helvetica,sans-Serif" font-size="8" text-anchor="middle">training (day)</text></g><g id="node6" class="node"><title>wger_core_models_DaysOfWeek</title><polygon fill="#eee8aa" stroke="none" points="229.5 -124 229.5 -141 297.5 -141 297.5 -124 229.5 -124"/><polygon fill="#698b22" stroke="none" points="229.5 -123.5 229.5 -140.5 297.5 -140.5 297.5 -123.5 229.5 -123.5"/><text x="238.5" y="-131.1" fill="#fff" font-family="Helvetica Bold" font-size="8" text-anchor="start">DaysOfWeek</text></g><g id="edge6" class="edge"><title>wger_manager_models_Day-&gt;wger_core_models_DaysOfWeek</title><path fill="none" stroke="#000" d="M263.5,-253.402C263.5,-223.88 263.5,-184.234 263.5,-158.77"/><ellipse cx="263.5" cy="-257.466" fill="#000" stroke="#000" rx="4" ry="4"/><ellipse cx="263.5" cy="-154.713" fill="#000" stroke="#000" rx="4" ry="4"/><text x="280.5" y="-204.6" font-family="Helvetica,sans-Serif" font-size="8" text-anchor="middle">day (day)</text></g><g id="node7" class="node"><title>wger_manager_models_Set</title><polygon fill="#eee8aa" stroke="none" points="164 -439.5 164 -508.5 321 -508.5 321 -439.5 164 -439.5"/><polygon fill="#698b22" stroke="none" points="164.5 -491 164.5 -508 321.5 -508 321.5 -491 164.5 -491"/><text x="232.5" y="-498.6" fill="#fff" font-family="Helvetica Bold" font-size="8" text-anchor="start">Set</text><text x="176.5" y="-483.6" font-family="Helvetica Bold" font-size="8" text-anchor="start">id</text><text x="247.5" y="-483.6" font-family="Helvetica Bold" font-size="8" text-anchor="start">AutoField</text><text x="176.5" y="-470.6" font-family="Helvetica Bold" font-size="8" text-anchor="start">exerciseday</text><text x="247.5" y="-470.6" font-family="Helvetica Bold" font-size="8" text-anchor="start">ForeignKey (id)</text><text x="176.5" y="-457.6" fill="#7b7b7b" font-family="Helvetica" font-size="8" text-anchor="start">order</text><text x="247.5" y="-457.6" fill="#7b7b7b" font-family="Helvetica" font-size="8" text-anchor="start">IntegerField</text><text x="176.5" y="-444.6" font-family="Helvetica" font-size="8" text-anchor="start">sets</text><text x="247.5" y="-444.6" font-family="Helvetica" font-size="8" text-anchor="start">IntegerField</text></g><g id="edge7" class="edge"><title>wger_manager_models_Set-&gt;wger_manager_models_Day</title><path fill="none" stroke="#000" d="M219.468,-427.475C213.997,-411.24 210.917,-392.812 215.5,-376 220.38,-358.098 230.304,-340.12 239.869,-325.622"/><ellipse cx="220.944" cy="-431.497" fill="#000" stroke="#000" rx="4" ry="4"/><text x="246" y="-378.6" font-family="Helvetica,sans-Serif" font-size="8" text-anchor="middle">exerciseday (set)</text></g><g id="node8" class="node"><title>wger_exercises_models_Exercise</title><polygon fill="#eee8aa" stroke="none" points="372.5 -285 372.5 -302 424.5 -302 424.5 -285 372.5 -285"/><polygon fill="#698b22" stroke="none" points="372.5 -284.5 372.5 -301.5 424.5 -301.5 424.5 -284.5 372.5 -284.5"/><text x="381.5" y="-292.1" fill="#fff" font-family="Helvetica Bold" font-size="8" text-anchor="start">Exercise</text></g><g id="edge8" class="edge"><title>wger_manager_models_Set-&gt;wger_exercises_models_Exercise</title><path fill="none" stroke="#000" d="M260.333,-428.098C269.599,-409.725 282.577,-389.626 299.5,-376 319.533,-359.869 333.879,-373.372 354.5,-358 368.2,-347.787 379.162,-332.012 386.718,-318.74"/><ellipse cx="258.583" cy="-431.705" fill="#000" stroke="#000" rx="4" ry="4"/><ellipse cx="388.649" cy="-315.19" fill="#000" stroke="#000" rx="4" ry="4"/><text x="325.5" y="-378.6" font-family="Helvetica,sans-Serif" font-size="8" text-anchor="middle">exercises (set)</text></g><g id="node9" class="node"><title>wger_manager_models_Setting</title><polygon fill="#eee8aa" stroke="none" points="343 -594 343 -728 512 -728 512 -594 343 -594"/><polygon fill="#698b22" stroke="none" points="343.5 -711 343.5 -728 512.5 -728 512.5 -711 343.5 -711"/><text x="409.5" y="-718.6" fill="#fff" font-family="Helvetica Bold" font-size="8" text-anchor="start">Setting</text><text x="355.5" y="-703.6" font-family="Helvetica Bold" font-size="8" text-anchor="start">id</text><text x="438.5" y="-703.6" font-family="Helvetica Bold" font-size="8" text-anchor="start">AutoField</text><text x="355.5" y="-690.6" font-family="Helvetica Bold" font-size="8" text-anchor="start">exercise</text><text x="438.5" y="-690.6" font-family="Helvetica Bold" font-size="8" text-anchor="start">ForeignKey (id)</text><text x="355.5" y="-677.6" font-family="Helvetica Bold" font-size="8" text-anchor="start">repetition_unit</text><text x="438.5" y="-677.6" font-family="Helvetica Bold" font-size="8" text-anchor="start">ForeignKey (id)</text><text x="355.5" y="-664.6" font-family="Helvetica Bold" font-size="8" text-anchor="start">set</text><text x="438.5" y="-664.6" font-family="Helvetica Bold" font-size="8" text-anchor="start">ForeignKey (id)</text><text x="355.5" y="-651.6" font-family="Helvetica Bold" font-size="8" text-anchor="start">weight_unit</text><text x="438.5" y="-651.6" font-family="Helvetica Bold" font-size="8" text-anchor="start">ForeignKey (id)</text><text x="355.5" y="-638.6" fill="#7b7b7b" font-family="Helvetica" font-size="8" text-anchor="start">comment</text><text x="438.5" y="-638.6" fill="#7b7b7b" font-family="Helvetica" font-size="8" text-anchor="start">CharField</text><text x="355.5" y="-625.6" fill="#7b7b7b" font-family="Helvetica" font-size="8" text-anchor="start">order</text><text x="438.5" y="-625.6" fill="#7b7b7b" font-family="Helvetica" font-size="8" text-anchor="start">IntegerField</text><text x="355.5" y="-612.6" font-family="Helvetica" font-size="8" text-anchor="start">reps</text><text x="438.5" y="-612.6" font-family="Helvetica" font-size="8" text-anchor="start">IntegerField</text><text x="355.5" y="-599.6" fill="#7b7b7b" font-family="Helvetica" font-size="8" text-anchor="start">weight</text><text x="438.5" y="-599.6" fill="#7b7b7b" font-family="Helvetica" font-size="8" text-anchor="start">DecimalField</text></g><g id="edge9" class="edge"><title>wger_manager_models_Setting-&gt;wger_manager_models_Set</title><path fill="none" stroke="#000" d="M328.402,-590.893C321.423,-584.778 314.704,-578.452 308.5,-572 291.418,-554.234 275.739,-531.592 263.953,-512.652"/><ellipse cx="331.841" cy="-593.842" fill="#000" stroke="#000" rx="4" ry="4"/><text x="330" y="-565.6" font-family="Helvetica,sans-Serif" font-size="8" text-anchor="middle">set (setting)</text></g><g id="edge10" class="edge"><title>wger_manager_models_Setting-&gt;wger_exercises_models_Exercise</title><path fill="none" stroke="#000" d="M412.45,-581.929C410.501,-569.611 408.752,-556.987 407.5,-545 398.37,-457.57 398.045,-352.149 398.314,-311.565"/><ellipse cx="413.115" cy="-586.022" fill="#000" stroke="#000" rx="4" ry="4"/><text x="438" y="-472.1" font-family="Helvetica,sans-Serif" font-size="8" text-anchor="middle">exercise (setting)</text></g><g id="node10" class="node"><title>wger_core_models_RepetitionUnit</title><polygon fill="#eee8aa" stroke="none" points="926.5 -285 926.5 -302 1002.5 -302 1002.5 -285 926.5 -285"/><polygon fill="#698b22" stroke="none" points="926.5 -284.5 926.5 -301.5 1002.5 -301.5 1002.5 -284.5 926.5 -284.5"/><text x="935.5" y="-292.1" fill="#fff" font-family="Helvetica Bold" font-size="8" text-anchor="start">RepetitionUnit</text></g><g id="edge11" class="edge"><title>wger_manager_models_Setting-&gt;wger_core_models_RepetitionUnit</title><path fill="none" stroke="#000" d="M528.22,-636.628C599.801,-617.687 696.798,-587.194 775.5,-545 877.053,-490.555 929.085,-488.613 979.5,-385 990.997,-361.371 981.443,-330.605 973.197,-311.719"/><ellipse cx="523.929" cy="-637.752" fill="#000" stroke="#000" rx="4" ry="4"/><text x="1010.5" y="-472.1" font-family="Helvetica,sans-Serif" font-size="8" text-anchor="middle">repetition_unit (setting)</text></g><g id="node11" class="node"><title>wger_core_models_WeightUnit</title><polygon fill="#eee8aa" stroke="none" points="458.5 -285 458.5 -302 522.5 -302 522.5 -285 458.5 -285"/><polygon fill="#698b22" stroke="none" points="458.5 -284.5 458.5 -301.5 522.5 -301.5 522.5 -284.5 458.5 -284.5"/><text x="468" y="-292.1" fill="#fff" font-family="Helvetica Bold" font-size="8" text-anchor="start">WeightUnit</text></g><g id="edge12" class="edge"><title>wger_manager_models_Setting-&gt;wger_core_models_WeightUnit</title><path fill="none" stroke="#000" d="M458.187,-582.347C462.189,-570.003 465.822,-557.261 468.5,-545 487.318,-458.844 490.136,-352.687 490.488,-311.735"/><ellipse cx="456.914" cy="-586.177" fill="#000" stroke="#000" rx="4" ry="4"/><text x="524" y="-472.1" font-family="Helvetica,sans-Serif" font-size="8" text-anchor="middle">weight_unit (setting)</text></g><g id="node12" class="node"><title>wger_manager_models_WorkoutLog</title><polygon fill="#eee8aa" stroke="none" points="590 -407 590 -541 759 -541 759 -407 590 -407"/><polygon fill="#698b22" stroke="none" points="590.5 -524 590.5 -541 759.5 -541 759.5 -524 590.5 -524"/><text x="646" y="-531.6" fill="#fff" font-family="Helvetica Bold" font-size="8" text-anchor="start">WorkoutLog</text><text x="602.5" y="-516.6" font-family="Helvetica Bold" font-size="8" text-anchor="start">id</text><text x="685.5" y="-516.6" font-family="Helvetica Bold" font-size="8" text-anchor="start">AutoField</text><text x="602.5" y="-503.6" font-family="Helvetica Bold" font-size="8" text-anchor="start">exercise</text><text x="685.5" y="-503.6" font-family="Helvetica Bold" font-size="8" text-anchor="start">ForeignKey (id)</text><text x="602.5" y="-490.6" font-family="Helvetica Bold" font-size="8" text-anchor="start">repetition_unit</text><text x="685.5" y="-490.6" font-family="Helvetica Bold" font-size="8" text-anchor="start">ForeignKey (id)</text><text x="602.5" y="-477.6" font-family="Helvetica Bold" font-size="8" text-anchor="start">user</text><text x="685.5" y="-477.6" font-family="Helvetica Bold" font-size="8" text-anchor="start">ForeignKey (id)</text><text x="602.5" y="-464.6" font-family="Helvetica Bold" font-size="8" text-anchor="start">weight_unit</text><text x="685.5" y="-464.6" font-family="Helvetica Bold" font-size="8" text-anchor="start">ForeignKey (id)</text><text x="602.5" y="-451.6" font-family="Helvetica Bold" font-size="8" text-anchor="start">workout</text><text x="685.5" y="-451.6" font-family="Helvetica Bold" font-size="8" text-anchor="start">ForeignKey (id)</text><text x="602.5" y="-438.6" font-family="Helvetica" font-size="8" text-anchor="start">date</text><text x="685.5" y="-438.6" font-family="Helvetica" font-size="8" text-anchor="start">Html5DateField</text><text x="602.5" y="-425.6" font-family="Helvetica" font-size="8" text-anchor="start">reps</text><text x="685.5" y="-425.6" font-family="Helvetica" font-size="8" text-anchor="start">IntegerField</text><text x="602.5" y="-412.6" font-family="Helvetica" font-size="8" text-anchor="start">weight</text><text x="685.5" y="-412.6" font-family="Helvetica" font-size="8" text-anchor="start">DecimalField</text></g><g id="edge13" class="edge"><title>wger_manager_models_WorkoutLog-&gt;wger_manager_models_Workout</title><path fill="none" stroke="#000" d="M631.035,-395.839C625.323,-388.674 619.129,-381.902 612.5,-376 598.842,-363.84 585.507,-373.306 575.5,-358 538.572,-301.518 547.445,-218.85 557.079,-171.183"/><ellipse cx="633.712" cy="-399.338" fill="#000" stroke="#000" rx="4" ry="4"/><text x="613.5" y="-291.6" font-family="Helvetica,sans-Serif" font-size="8" text-anchor="middle">workout (workoutlog)</text></g><g id="edge14" class="edge"><title>wger_manager_models_WorkoutLog-&gt;django_contrib_auth_models_User</title><path fill="none" stroke="#000" d="M774.143,-401.402C802.297,-383.573 819.924,-386.325 834.5,-358 860.735,-307.021 839.104,-286.148 834.5,-229 829.149,-162.578 852.226,-132.956 810.5,-81 778.473,-41.121 717.042,-26.7814 681.574,-21.7064"/><ellipse cx="770.481" cy="-403.875" fill="#000" stroke="#000" rx="4" ry="4"/><text x="866.5" y="-204.6" font-family="Helvetica,sans-Serif" font-size="8" text-anchor="middle">user (workoutlog)</text></g><g id="edge15" class="edge"><title>wger_manager_models_WorkoutLog-&gt;wger_exercises_models_Exercise</title><path fill="none" stroke="#000" d="M574.222,-405.673C571.983,-404.733 569.741,-403.84 567.5,-403 512.878,-382.536 483.908,-420.335 437.5,-385 414.087,-367.174 404.53,-332.448 400.779,-311.579"/><ellipse cx="578.162" cy="-407.422" fill="#000" stroke="#000" rx="4" ry="4"/><text x="476" y="-378.6" font-family="Helvetica,sans-Serif" font-size="8" text-anchor="middle">exercise (workoutlog)</text></g><g id="edge16" class="edge"><title>wger_manager_models_WorkoutLog-&gt;wger_core_models_RepetitionUnit</title><path fill="none" stroke="#000" d="M775.044,-433.681C805.173,-420.073 837.601,-403.525 865.5,-385 898.091,-363.359 930.542,-331.147 949.001,-311.558"/><ellipse cx="771.091" cy="-435.447" fill="#000" stroke="#000" rx="4" ry="4"/><text x="926.5" y="-378.6" font-family="Helvetica,sans-Serif" font-size="8" text-anchor="middle">repetition_unit (workoutlog)</text></g><g id="edge17" class="edge"><title>wger_manager_models_WorkoutLog-&gt;wger_core_models_WeightUnit</title><path fill="none" stroke="#000" d="M574.596,-406.85C572.221,-405.534 569.853,-404.249 567.5,-403 549.199,-393.288 538.876,-399.919 524.5,-385 504.818,-364.575 496.305,-331.677 492.792,-311.675"/><ellipse cx="578.257" cy="-408.917" fill="#000" stroke="#000" rx="4" ry="4"/><text x="568.5" y="-378.6" font-family="Helvetica,sans-Serif" font-size="8" text-anchor="middle">weight_unit (workoutlog)</text></g><g id="node13" class="node"><title>wger_manager_models_WorkoutSession</title><polygon fill="#eee8aa" stroke="none" points="669 -233 669 -354 818 -354 818 -233 669 -233"/><polygon fill="#698b22" stroke="none" points="669.5 -336.5 669.5 -353.5 818.5 -353.5 818.5 -336.5 669.5 -336.5"/><text x="707" y="-344.1" fill="#fff" font-family="Helvetica Bold" font-size="8" text-anchor="start">WorkoutSession</text><text x="681.5" y="-329.1" font-family="Helvetica Bold" font-size="8" text-anchor="start">id</text><text x="744.5" y="-329.1" font-family="Helvetica Bold" font-size="8" text-anchor="start">AutoField</text><text x="681.5" y="-316.1" font-family="Helvetica Bold" font-size="8" text-anchor="start">user</text><text x="744.5" y="-316.1" font-family="Helvetica Bold" font-size="8" text-anchor="start">ForeignKey (id)</text><text x="681.5" y="-303.1" font-family="Helvetica Bold" font-size="8" text-anchor="start">workout</text><text x="744.5" y="-303.1" font-family="Helvetica Bold" font-size="8" text-anchor="start">ForeignKey (id)</text><text x="681.5" y="-290.1" font-family="Helvetica" font-size="8" text-anchor="start">date</text><text x="744.5" y="-290.1" font-family="Helvetica" font-size="8" text-anchor="start">Html5DateField</text><text x="681.5" y="-277.1" font-family="Helvetica" font-size="8" text-anchor="start">impression</text><text x="744.5" y="-277.1" font-family="Helvetica" font-size="8" text-anchor="start">CharField</text><text x="681.5" y="-264.1" fill="#7b7b7b" font-family="Helvetica" font-size="8" text-anchor="start">notes</text><text x="744.5" y="-264.1" fill="#7b7b7b" font-family="Helvetica" font-size="8" text-anchor="start">TextField</text><text x="681.5" y="-251.1" fill="#7b7b7b" font-family="Helvetica" font-size="8" text-anchor="start">time_end</text><text x="744.5" y="-251.1" fill="#7b7b7b" font-family="Helvetica" font-size="8" text-anchor="start">TimeField</text><text x="681.5" y="-238.1" fill="#7b7b7b" font-family="Helvetica" font-size="8" text-anchor="start">time_start</text><text x="744.5" y="-238.1" fill="#7b7b7b" font-family="Helvetica" font-size="8" text-anchor="start">TimeField</text></g><g id="edge18" class="edge"><title>wger_manager_models_WorkoutSession-&gt;wger_manager_models_Workout</title><path fill="none" stroke="#000" d="M654.419,-234.005C645.014,-226.642 635.849,-218.907 627.5,-211 614.943,-199.108 602.8,-184.537 592.698,-171.251"/><ellipse cx="657.791" cy="-236.601" fill="#000" stroke="#000" rx="4" ry="4"/><text x="673.5" y="-204.6" font-family="Helvetica,sans-Serif" font-size="8" text-anchor="middle">workout (workoutsession)</text></g><g id="edge19" class="edge"><title>wger_manager_models_WorkoutSession-&gt;django_contrib_auth_models_User</title><path fill="none" stroke="#000" d="M734.002,-220.761C725.51,-171.814 710.154,-106.578 683.5,-54 680.289,-47.6654 675.751,-41.459 671.217,-36.0735"/><ellipse cx="734.69" cy="-224.836" fill="#000" stroke="#000" rx="4" ry="4"/><text x="767" y="-130.6" font-family="Helvetica,sans-Serif" font-size="8" text-anchor="middle">user (workoutsession)</text></g></g></svg>