<svg xmlns="http://www.w3.org/2000/svg" xmlns:svg="http://www.w3.org/2000/svg" id="svg2" width="646pt" height="984" version="1.1" viewBox="0 0 646 738"><metadata id="metadata770"/><g id="node1" class="node" transform="translate(4,734)"><title id="title10">wger_utils_models_AbstractLicenseModel</title><polygon id="polygon12" points="170.5 -130 170.5 -86 7.5 -86 7.5 -86 7.5 -130" style="fill:#eee8aa;stroke:none"/><polygon id="polygon14" points="171 -130 171 -112 8 -112 8 -112 8 -130" style="fill:#698b22;stroke:none"/><text id="text18" x="41" y="-120.1" font-size="8" style="font-size:8px;text-anchor:start;fill:#fff;font-family:Helvetica Bold">AbstractLicenseModel</text><text id="text22" x="20" y="-104.6" font-size="8" style="font-size:8px;text-anchor:start;font-family:Helvetica Bold">license</text><text id="text28" x="97" y="-104.6" font-size="8" style="font-size:8px;text-anchor:start;font-family:Helvetica Bold">ForeignKey (id)</text><text id="text34" x="20" y="-91.6" font-size="8" style="font-size:8px;text-anchor:start;fill:#7b7b7b;font-family:'Helvetica '">license_author</text><text id="text40" x="97" y="-91.6" font-size="8" style="font-size:8px;text-anchor:start;fill:#7b7b7b;font-family:'Helvetica '">CharField</text></g><g id="node2" class="node" transform="translate(4,734)"><title id="title45">wger_core_models_License</title><polygon id="polygon47" points="114.5 -27 114.5 -9 63.5 -9 63.5 -9 63.5 -27" style="fill:#eee8aa;stroke:none"/><polygon id="polygon49" points="115 -27 115 -9 64 -9 64 -9 64 -27" style="fill:#698b22;stroke:none"/><text id="text53" x="74" y="-17.1" font-size="8" style="font-size:8px;text-anchor:start;fill:#fff;font-family:Helvetica Bold">License</text></g><g id="edge1" class="edge" transform="translate(4,734)"><title id="title58">wger_utils_models_AbstractLicenseModel-&gt;wger_core_models_License</title><path id="path60" d="m 89,-73.3909 c 0,12.7559 0,26.7476 0,37.3454" style="fill:none;stroke:#000"/><ellipse id="ellipse62" cx="89" cy="-77.547" d="m 93,-77.546799 c 0,2.209139 -1.790861,4 -4,4 -2.209139,0 -4,-1.790861 -4,-4 0,-2.209139 1.790861,-4 4,-4 2.209139,0 4,1.790861 4,4 z" rx="4" ry="4" style="fill:#000;stroke:#000"/><text id="text64" x="142.5" y="-57.1" font-size="8" style="font-size:8px;text-anchor:middle;font-family:'Helvetica,sans-Serif'">license (abstractlicensemodel)</text></g><g id="node3" class="node" transform="translate(4,734)"><title id="title67">wger_nutrition_models_NutritionPlan</title><polygon id="polygon69" points="447.5 -363 447.5 -267 272.5 -267 272.5 -267 272.5 -363" style="fill:#eee8aa;stroke:none"/><polygon id="polygon71" points="448 -363 448 -345 273 -345 273 -345 273 -363" style="fill:#698b22;stroke:none"/><text id="text75" x="330" y="-353.1" font-size="8" style="font-size:8px;text-anchor:start;fill:#fff;font-family:Helvetica Bold">NutritionPlan</text><text id="text79" x="285" y="-337.6" font-size="8" style="font-size:8px;text-anchor:start;font-family:Helvetica Bold">id</text><text id="text85" x="374" y="-337.6" font-size="8" style="font-size:8px;text-anchor:start;font-family:Helvetica Bold">AutoField</text><text id="text91" x="285" y="-324.6" font-size="8" style="font-size:8px;text-anchor:start;font-family:Helvetica Bold">language</text><text id="text97" x="374" y="-324.6" font-size="8" style="font-size:8px;text-anchor:start;font-family:Helvetica Bold">ForeignKey (id)</text><text id="text103" x="285" y="-311.6" font-size="8" style="font-size:8px;text-anchor:start;font-family:Helvetica Bold">user</text><text id="text109" x="374" y="-311.6" font-size="8" style="font-size:8px;text-anchor:start;font-family:Helvetica Bold">ForeignKey (id)</text><text id="text115" x="285" y="-298.6" font-size="8" style="font-size:8px;text-anchor:start;fill:#7b7b7b;font-family:'Helvetica '">creation_date</text><text id="text121" x="374" y="-298.6" font-size="8" style="font-size:8px;text-anchor:start;fill:#7b7b7b;font-family:'Helvetica '">DateField</text><text id="text127" x="285" y="-285.6" font-size="8" style="font-size:8px;text-anchor:start;fill:#7b7b7b;font-family:'Helvetica '">description</text><text id="text133" x="374" y="-285.6" font-size="8" style="font-size:8px;text-anchor:start;fill:#7b7b7b;font-family:'Helvetica '">TextField</text><text id="text139" x="285" y="-272.6" font-size="8" style="font-size:8px;text-anchor:start;fill:#7b7b7b;font-family:'Helvetica '">has_goal_calories</text><text id="text145" x="374" y="-272.6" font-size="8" style="font-size:8px;text-anchor:start;fill:#7b7b7b;font-family:'Helvetica '">BooleanField</text></g><g id="node4" class="node" transform="translate(4,734)"><title id="title150">django_contrib_auth_models_User</title><polygon id="polygon152" points="299.5 -117 299.5 -99 260.5 -99 260.5 -99 260.5 -117" style="fill:#eee8aa;stroke:none"/><polygon id="polygon154" points="300 -117 300 -99 261 -99 261 -99 261 -117" style="fill:#698b22;stroke:none"/><text id="text158" x="271" y="-107.1" font-size="8" style="font-size:8px;text-anchor:start;fill:#fff;font-family:Helvetica Bold">User</text></g><g id="edge2" class="edge" transform="translate(4,734)"><title id="title163">wger_nutrition_models_NutritionPlan-&gt;django_contrib_auth_models_User</title><path id="path165" d="m 348.475,-255.041 c -7.541,31.624 -19.08,70.642 -35.475,103.041 -4.589,9.068 -11.179,18.138 -17.265,25.594" style="fill:none;stroke:#000"/><ellipse id="ellipse167" cx="349.4" cy="-259.018" d="m 353.4,-259.01801 c 0,2.20915 -1.79086,4.00001 -4.00001,4.00001 -2.20914,0 -4.00001,-1.79086 -4.00001,-4.00001 0,-2.20914 1.79087,-4.00001 4.00001,-4.00001 2.20915,0 4.00001,1.79087 4.00001,4.00001 z" rx="4" ry="4" style="fill:#000;stroke:#000"/><text id="text169" x="355" y="-159.1" font-size="8" style="font-size:8px;text-anchor:middle;font-family:'Helvetica,sans-Serif'">user (nutritionplan)</text></g><g id="node5" class="node" transform="translate(4,734)"><title id="title172">wger_core_models_Language</title><polygon id="polygon174" points="455.5 -117 455.5 -99 396.5 -99 396.5 -99 396.5 -117" style="fill:#eee8aa;stroke:none"/><polygon id="polygon176" points="456 -117 456 -99 397 -99 397 -99 397 -117" style="fill:#698b22;stroke:none"/><text id="text180" x="406.5" y="-107.1" font-size="8" style="font-size:8px;text-anchor:start;fill:#fff;font-family:Helvetica Bold">Language</text></g><g id="edge3" class="edge" transform="translate(4,734)"><title id="title185">wger_nutrition_models_NutritionPlan-&gt;wger_core_models_Language</title><path id="path187" d="m 378.975,-255.063 c 14.095,43.78 32.384,100.587 41.439,128.712" style="fill:none;stroke:#000"/><ellipse id="ellipse189" cx="377.71" cy="-258.991" d="m 381.71,-258.991 c 0,2.20915 -1.79086,4.00001 -4.00001,4.00001 -2.20914,0 -4.00001,-1.79086 -4.00001,-4.00001 0,-2.20914 1.79087,-4.00001 4.00001,-4.00001 2.20915,0 4.00001,1.79087 4.00001,4.00001 z" rx="4" ry="4" style="fill:#000;stroke:#000"/><text id="text191" x="454.5" y="-159.1" font-size="8" style="font-size:8px;text-anchor:middle;font-family:'Helvetica,sans-Serif'">language (nutritionplan)</text></g><g id="node6" class="node" transform="translate(4,734)"><title id="title194">wger_nutrition_models_Ingredient</title><polygon id="polygon196" points="238 -438 238 -192 50 -192 50 -192 50 -438" style="fill:#eee8aa;stroke:none"/><polygon id="polygon198" points="238 -438 238 -413 50 -413 50 -413 50 -438" style="fill:#698b22;stroke:none"/><text id="text202" x="124" y="-428.1" font-size="8" style="font-size:8px;text-anchor:start;fill:#fff;font-family:Helvetica Bold">Ingredient</text><text id="text204" x="95" y="-420.1" font-size="8" style="font-size:8px;text-anchor:start;fill:#fff;font-family:Helvetica Bold">&lt;</text><text id="text206" x="100" y="-420.1" font-size="8" style="font-size:8px;text-anchor:start;fill:#fff;font-family:Helvetica Italic">AbstractLicenseModel</text><text id="text208" x="179" y="-420.1" font-size="8" style="font-size:8px;text-anchor:start;fill:#fff;font-family:Helvetica Bold">&gt;</text><text id="text212" x="62" y="-405.6" font-size="8" style="font-size:8px;text-anchor:start;font-family:Helvetica Bold">id</text><text id="text218" x="163" y="-405.6" font-size="8" style="font-size:8px;text-anchor:start;font-family:Helvetica Bold">AutoField</text><text id="text224" x="62" y="-392.6" font-size="8" style="font-size:8px;text-anchor:start;font-family:Helvetica Bold">language</text><text id="text230" x="163" y="-392.6" font-size="8" style="font-size:8px;text-anchor:start;font-family:Helvetica Bold">ForeignKey (id)</text><text id="text236" x="62" y="-379.6" font-size="8" style="font-size:8px;text-anchor:start;font-family:Helvetica ItalicBold">license</text><text id="text242" x="163" y="-379.6" font-size="8" style="font-size:8px;text-anchor:start;font-family:Helvetica ItalicBold">ForeignKey (id)</text><text id="text248" x="62" y="-366.6" font-size="8" style="font-size:8px;text-anchor:start;fill:#7b7b7b;font-family:Helvetica Bold">user</text><text id="text254" x="163" y="-366.6" font-size="8" style="font-size:8px;text-anchor:start;fill:#7b7b7b;font-family:Helvetica Bold">ForeignKey (id)</text><text id="text260" x="62" y="-353.6" font-size="8" style="font-size:8px;text-anchor:start;font-family:'Helvetica '">carbohydrates</text><text id="text266" x="163" y="-353.6" font-size="8" style="font-size:8px;text-anchor:start;font-family:'Helvetica '">DecimalField</text><text id="text272" x="62" y="-340.6" font-size="8" style="font-size:8px;text-anchor:start;fill:#7b7b7b;font-family:'Helvetica '">carbohydrates_sugar</text><text id="text278" x="163" y="-340.6" font-size="8" style="font-size:8px;text-anchor:start;fill:#7b7b7b;font-family:'Helvetica '">DecimalField</text><text id="text284" x="62" y="-327.6" font-size="8" style="font-size:8px;text-anchor:start;fill:#7b7b7b;font-family:'Helvetica '">creation_date</text><text id="text290" x="163" y="-327.6" font-size="8" style="font-size:8px;text-anchor:start;fill:#7b7b7b;font-family:'Helvetica '">DateField</text><text id="text296" x="62" y="-314.6" font-size="8" style="font-size:8px;text-anchor:start;font-family:'Helvetica '">energy</text><text id="text302" x="163" y="-314.6" font-size="8" style="font-size:8px;text-anchor:start;font-family:'Helvetica '">IntegerField</text><text id="text308" x="62" y="-301.6" font-size="8" style="font-size:8px;text-anchor:start;font-family:'Helvetica '">fat</text><text id="text314" x="163" y="-301.6" font-size="8" style="font-size:8px;text-anchor:start;font-family:'Helvetica '">DecimalField</text><text id="text320" x="62" y="-288.6" font-size="8" style="font-size:8px;text-anchor:start;fill:#7b7b7b;font-family:'Helvetica '">fat_saturated</text><text id="text326" x="163" y="-288.6" font-size="8" style="font-size:8px;text-anchor:start;fill:#7b7b7b;font-family:'Helvetica '">DecimalField</text><text id="text332" x="62" y="-275.6" font-size="8" style="font-size:8px;text-anchor:start;fill:#7b7b7b;font-family:'Helvetica '">fibres</text><text id="text338" x="163" y="-275.6" font-size="8" style="font-size:8px;text-anchor:start;fill:#7b7b7b;font-family:'Helvetica '">DecimalField</text><text id="text344" x="62" y="-262.6" font-size="8" style="font-size:8px;text-anchor:start;fill:#7b7b7b;font-family:Helvetica Italic">license_author</text><text id="text350" x="163" y="-262.6" font-size="8" style="font-size:8px;text-anchor:start;fill:#7b7b7b;font-family:Helvetica Italic">CharField</text><text id="text356" x="62" y="-249.6" font-size="8" style="font-size:8px;text-anchor:start;font-family:'Helvetica '">name</text><text id="text362" x="163" y="-249.6" font-size="8" style="font-size:8px;text-anchor:start;font-family:'Helvetica '">CharField</text><text id="text368" x="62" y="-236.6" font-size="8" style="font-size:8px;text-anchor:start;font-family:'Helvetica '">protein</text><text id="text374" x="163" y="-236.6" font-size="8" style="font-size:8px;text-anchor:start;font-family:'Helvetica '">DecimalField</text><text id="text380" x="62" y="-223.6" font-size="8" style="font-size:8px;text-anchor:start;fill:#7b7b7b;font-family:'Helvetica '">sodium</text><text id="text386" x="163" y="-223.6" font-size="8" style="font-size:8px;text-anchor:start;fill:#7b7b7b;font-family:'Helvetica '">DecimalField</text><text id="text392" x="62" y="-210.6" font-size="8" style="font-size:8px;text-anchor:start;font-family:'Helvetica '">status</text><text id="text398" x="163" y="-210.6" font-size="8" style="font-size:8px;text-anchor:start;font-family:'Helvetica '">CharField</text><text id="text404" x="62" y="-197.6" font-size="8" style="font-size:8px;text-anchor:start;fill:#7b7b7b;font-family:'Helvetica '">update_date</text><text id="text410" x="163" y="-197.6" font-size="8" style="font-size:8px;text-anchor:start;fill:#7b7b7b;font-family:'Helvetica '">DateField</text></g><g id="edge4" class="edge" transform="translate(4,734)"><title id="title415">wger_nutrition_models_Ingredient-&gt;wger_utils_models_AbstractLicenseModel</title><path id="path417" d="m 93.9742,-187.872 c -1.5134,5.993 -2.8539,11.97 -3.9742,17.872 -1.5727,8.286 -2.2639,17.318 -2.4696,25.832" style="fill:none;stroke:#000"/><polygon id="polygon419" points="84.03 -144.139 91.03 -144.113 91.03 -144.113 87.493 -134.126" style="fill:none;stroke:#000"/><text id="text421" x="110" y="-163.6" font-size="8" style="font-size:8px;text-anchor:middle;font-family:'Helvetica,sans-Serif'">abstract</text><text id="text423" x="110" y="-154.6" font-size="8" style="font-size:8px;text-anchor:middle;font-family:'Helvetica,sans-Serif'">inheritance</text></g><g id="edge5" class="edge" transform="translate(4,734)"><title id="title426">wger_nutrition_models_Ingredient-&gt;django_contrib_auth_models_User</title><path id="path428" d="m 138.413,-180.069 c 3.394,10.06 8.135,19.58 14.587,28.069 6.215,8.177 64.229,25.519 99.662,35.501" style="fill:none;stroke:#000"/><ellipse id="ellipse430" cx="137.224" cy="-184.029" d="m 141.22401,-184.02901 c 0,2.20915 -1.79087,4.00001 -4.00001,4.00001 -2.20915,0 -4.00001,-1.79086 -4.00001,-4.00001 0,-2.20914 1.79086,-4.00001 4.00001,-4.00001 2.20914,0 4.00001,1.79087 4.00001,4.00001 z" rx="4" ry="4" style="fill:#000;stroke:#000"/><text id="text432" x="183" y="-159.1" font-size="8" style="font-size:8px;text-anchor:middle;font-family:'Helvetica,sans-Serif'">user (ingredient)</text></g><g id="edge6" class="edge" transform="translate(4,734)"><title id="title435">wger_nutrition_models_Ingredient-&gt;wger_core_models_Language</title><path id="path437" d="m 208.751,-180.609 c 8.265,13.044 16.264,23.385 23.249,28.609 30.576,22.867 46.717,9.769 84,18 24.192,5.341 51.334,11.508 72.605,16.38" style="fill:none;stroke:#000"/><ellipse id="ellipse439" cx="206.506" cy="-184.257" d="m 210.50602,-184.257 c 0,2.20915 -1.79087,4.00002 -4.00002,4.00002 -2.20915,0 -4.00002,-1.79087 -4.00002,-4.00002 0,-2.20915 1.79087,-4.00002 4.00002,-4.00002 2.20915,0 4.00002,1.79087 4.00002,4.00002 z" rx="4" ry="4" style="fill:#000;stroke:#000"/><text id="text441" x="270.5" y="-159.1" font-size="8" style="font-size:8px;text-anchor:middle;font-family:'Helvetica,sans-Serif'">language (ingredient)</text></g><g id="node7" class="node" transform="translate(4,734)"><title id="title444">wger_nutrition_models_WeightUnit</title><polygon id="polygon446" points="630 -343.5 630 -286.5 482 -286.5 482 -286.5 482 -343.5" style="fill:#eee8aa;stroke:none"/><polygon id="polygon448" points="630 -343 630 -325 482 -325 482 -325 482 -343" style="fill:#698b22;stroke:none"/><text id="text452" x="529.5" y="-333.1" font-size="8" style="font-size:8px;text-anchor:start;fill:#fff;font-family:Helvetica Bold">WeightUnit</text><text id="text456" x="494" y="-317.6" font-size="8" style="font-size:8px;text-anchor:start;font-family:Helvetica Bold">id</text><text id="text462" x="556" y="-317.6" font-size="8" style="font-size:8px;text-anchor:start;font-family:Helvetica Bold">AutoField</text><text id="text468" x="494" y="-304.6" font-size="8" style="font-size:8px;text-anchor:start;font-family:Helvetica Bold">language</text><text id="text474" x="556" y="-304.6" font-size="8" style="font-size:8px;text-anchor:start;font-family:Helvetica Bold">ForeignKey (id)</text><text id="text480" x="494" y="-291.6" font-size="8" style="font-size:8px;text-anchor:start;font-family:'Helvetica '">name</text><text id="text486" x="556" y="-291.6" font-size="8" style="font-size:8px;text-anchor:start;font-family:'Helvetica '">CharField</text></g><g id="edge7" class="edge" transform="translate(4,734)"><title id="title491">wger_nutrition_models_WeightUnit-&gt;wger_core_models_Language</title><path id="path493" d="M 550.627,-274.257 C 544.096,-238.86 530.099,-187.346 501,-152 c -9.921,12.051 -24.159,21.407 -37.569,28.269" style="fill:none;stroke:#000"/><ellipse id="ellipse495" cx="551.37" cy="-278.502" d="m 555.37001,-278.50201 c 0,2.20914 -1.79087,4.00001 -4.00001,4.00001 -2.20915,0 -4.00001,-1.79087 -4.00001,-4.00001 0,-2.20915 1.79086,-4.00001 4.00001,-4.00001 2.20914,0 4.00001,1.79086 4.00001,4.00001 z" rx="4" ry="4" style="fill:#000;stroke:#000"/><text id="text497" x="551" y="-159.1" font-size="8" style="font-size:8px;text-anchor:middle;font-family:'Helvetica,sans-Serif'">language (weightunit)</text></g><g id="node8" class="node" transform="translate(4,734)"><title id="title500">wger_nutrition_models_IngredientWeightUnit</title><polygon id="polygon502" points="572 -575.5 572 -492.5 420 -492.5 420 -492.5 420 -575.5" style="fill:#eee8aa;stroke:none"/><polygon id="polygon504" points="572 -575 572 -557 420 -557 420 -557 420 -575" style="fill:#698b22;stroke:none"/><text id="text508" x="449.5" y="-565.1" font-size="8" style="font-size:8px;text-anchor:start;fill:#fff;font-family:Helvetica Bold">IngredientWeightUnit</text><text id="text512" x="432" y="-549.6" font-size="8" style="font-size:8px;text-anchor:start;font-family:Helvetica Bold">id</text><text id="text518" x="498" y="-549.6" font-size="8" style="font-size:8px;text-anchor:start;font-family:Helvetica Bold">AutoField</text><text id="text524" x="432" y="-536.6" font-size="8" style="font-size:8px;text-anchor:start;font-family:Helvetica Bold">ingredient</text><text id="text530" x="498" y="-536.6" font-size="8" style="font-size:8px;text-anchor:start;font-family:Helvetica Bold">ForeignKey (id)</text><text id="text536" x="432" y="-523.6" font-size="8" style="font-size:8px;text-anchor:start;font-family:Helvetica Bold">unit</text><text id="text542" x="498" y="-523.6" font-size="8" style="font-size:8px;text-anchor:start;font-family:Helvetica Bold">ForeignKey (id)</text><text id="text548" x="432" y="-510.6" font-size="8" style="font-size:8px;text-anchor:start;font-family:'Helvetica '">amount</text><text id="text554" x="498" y="-510.6" font-size="8" style="font-size:8px;text-anchor:start;font-family:'Helvetica '">DecimalField</text><text id="text560" x="432" y="-497.6" font-size="8" style="font-size:8px;text-anchor:start;font-family:'Helvetica '">gram</text><text id="text566" x="498" y="-497.6" font-size="8" style="font-size:8px;text-anchor:start;font-family:'Helvetica '">IntegerField</text></g><g id="edge8" class="edge" transform="translate(4,734)"><title id="title571">wger_nutrition_models_IngredientWeightUnit-&gt;wger_nutrition_models_Ingredient</title><path id="path573" d="m 427.365,-484.087 c -15.626,9.27 -32.585,17.968 -49.365,24.087 -51.906,18.927 -74.434,-8.34 -123,18 -3.203,1.737 -6.358,3.605 -9.462,5.587" style="fill:none;stroke:#000"/><ellipse id="ellipse575" cx="431.024" cy="-486.305" d="m 435.02401,-486.30499 c 0,2.20915 -1.79087,4.00002 -4.00002,4.00002 -2.20915,0 -4.00002,-1.79087 -4.00002,-4.00002 0,-2.20915 1.79087,-4.00002 4.00002,-4.00002 2.20915,0 4.00002,1.79087 4.00002,4.00002 z" rx="4" ry="4" style="fill:#000;stroke:#000"/><text id="text577" x="456.5" y="-463.1" font-size="8" style="font-size:8px;text-anchor:middle;font-family:'Helvetica,sans-Serif'">ingredient (ingredientweightunit)</text></g><g id="edge9" class="edge" transform="translate(4,734)"><title id="title580">wger_nutrition_models_IngredientWeightUnit-&gt;wger_nutrition_models_WeightUnit</title><path id="path582" d="m 521.084,-480.936 c 1.418,3.665 2.742,7.333 3.916,10.936 13.478,41.359 22.195,90.962 26.851,122.481" style="fill:none;stroke:#000"/><ellipse id="ellipse584" cx="519.555" cy="-484.72" d="m 523.555,-484.72 c 0,2.20914 -1.79086,4.00001 -4.00001,4.00001 -2.20914,0 -4.00001,-1.79087 -4.00001,-4.00001 0,-2.20915 1.79087,-4.00001 4.00001,-4.00001 2.20915,0 4.00001,1.79086 4.00001,4.00001 z" rx="4" ry="4" style="fill:#000;stroke:#000"/><text id="text586" x="574.5" y="-463.1" font-size="8" style="font-size:8px;text-anchor:middle;font-family:'Helvetica,sans-Serif'">unit (ingredientweightunit)</text></g><g id="node9" class="node" transform="translate(4,734)"><title id="title589">wger_nutrition_models_Meal</title><polygon id="polygon591" points="385.5 -569 385.5 -499 254.5 -499 254.5 -499 254.5 -569" style="fill:#eee8aa;stroke:none"/><polygon id="polygon593" points="386 -569 386 -551 255 -551 255 -551 255 -569" style="fill:#698b22;stroke:none"/><text id="text597" x="307" y="-559.1" font-size="8" style="font-size:8px;text-anchor:start;fill:#fff;font-family:Helvetica Bold">Meal</text><text id="text601" x="267" y="-543.6" font-size="8" style="font-size:8px;text-anchor:start;font-family:Helvetica Bold">id</text><text id="text607" x="312" y="-543.6" font-size="8" style="font-size:8px;text-anchor:start;font-family:Helvetica Bold">AutoField</text><text id="text613" x="267" y="-530.6" font-size="8" style="font-size:8px;text-anchor:start;font-family:Helvetica Bold">plan</text><text id="text619" x="312" y="-530.6" font-size="8" style="font-size:8px;text-anchor:start;font-family:Helvetica Bold">ForeignKey (id)</text><text id="text625" x="267" y="-517.6" font-size="8" style="font-size:8px;text-anchor:start;fill:#7b7b7b;font-family:'Helvetica '">order</text><text id="text631" x="312" y="-517.6" font-size="8" style="font-size:8px;text-anchor:start;fill:#7b7b7b;font-family:'Helvetica '">IntegerField</text><text id="text637" x="267" y="-504.6" font-size="8" style="font-size:8px;text-anchor:start;fill:#7b7b7b;font-family:'Helvetica '">time</text><text id="text643" x="312" y="-504.6" font-size="8" style="font-size:8px;text-anchor:start;fill:#7b7b7b;font-family:'Helvetica '">Html5TimeField</text></g><g id="edge10" class="edge" transform="translate(4,734)"><title id="title648">wger_nutrition_models_Meal-&gt;wger_nutrition_models_NutritionPlan</title><path id="path650" d="m 328.563,-486.545 c 6.456,35.022 15.306,83.033 21.971,119.193" style="fill:none;stroke:#000"/><ellipse id="ellipse652" cx="327.784" cy="-490.771" d="m 331.78401,-490.771 c 0,2.20915 -1.79087,4.00001 -4.00001,4.00001 -2.20915,0 -4.00001,-1.79086 -4.00001,-4.00001 0,-2.20914 1.79086,-4.00001 4.00001,-4.00001 2.20914,0 4.00001,1.79087 4.00001,4.00001 z" rx="4" ry="4" style="fill:#000;stroke:#000"/><text id="text654" x="353.5" y="-463.1" font-size="8" style="font-size:8px;text-anchor:middle;font-family:'Helvetica,sans-Serif'">plan (meal)</text></g><g id="node10" class="node" transform="translate(4,734)"><title id="title657">wger_nutrition_models_MealItem</title><polygon id="polygon659" points="399 -726 399 -630 241 -630 241 -630 241 -726" style="fill:#eee8aa;stroke:none"/><polygon id="polygon661" points="399 -726 399 -708 241 -708 241 -708 241 -726" style="fill:#698b22;stroke:none"/><text id="text665" x="298.5" y="-716.1" font-size="8" style="font-size:8px;text-anchor:start;fill:#fff;font-family:Helvetica Bold">MealItem</text><text id="text669" x="253" y="-700.6" font-size="8" style="font-size:8px;text-anchor:start;font-family:Helvetica Bold">id</text><text id="text675" x="325" y="-700.6" font-size="8" style="font-size:8px;text-anchor:start;font-family:Helvetica Bold">AutoField</text><text id="text681" x="253" y="-687.6" font-size="8" style="font-size:8px;text-anchor:start;font-family:Helvetica Bold">ingredient</text><text id="text687" x="325" y="-687.6" font-size="8" style="font-size:8px;text-anchor:start;font-family:Helvetica Bold">ForeignKey (id)</text><text id="text693" x="253" y="-674.6" font-size="8" style="font-size:8px;text-anchor:start;font-family:Helvetica Bold">meal</text><text id="text699" x="325" y="-674.6" font-size="8" style="font-size:8px;text-anchor:start;font-family:Helvetica Bold">ForeignKey (id)</text><text id="text705" x="253" y="-661.6" font-size="8" style="font-size:8px;text-anchor:start;fill:#7b7b7b;font-family:Helvetica Bold">weight_unit</text><text id="text711" x="325" y="-661.6" font-size="8" style="font-size:8px;text-anchor:start;fill:#7b7b7b;font-family:Helvetica Bold">ForeignKey (id)</text><text id="text717" x="253" y="-648.6" font-size="8" style="font-size:8px;text-anchor:start;font-family:'Helvetica '">amount</text><text id="text723" x="325" y="-648.6" font-size="8" style="font-size:8px;text-anchor:start;font-family:'Helvetica '">DecimalField</text><text id="text729" x="253" y="-635.6" font-size="8" style="font-size:8px;text-anchor:start;fill:#7b7b7b;font-family:'Helvetica '">order</text><text id="text735" x="325" y="-635.6" font-size="8" style="font-size:8px;text-anchor:start;fill:#7b7b7b;font-family:'Helvetica '">IntegerField</text></g><g id="edge11" class="edge" transform="translate(4,734)"><title id="title740">wger_nutrition_models_MealItem-&gt;wger_nutrition_models_Ingredient</title><path id="path742" d="m 225.536,-639.194 c -25.098,14.693 -49.4,34.152 -64.536,59.194 -24.589,40.682 -32.074,91.621 -32.266,137.874" style="fill:none;stroke:#000"/><ellipse id="ellipse744" cx="229.149" cy="-641.241" d="m 233.14902,-641.24103 c 0,2.20915 -1.79087,4.00002 -4.00002,4.00002 -2.20915,0 -4.00002,-1.79087 -4.00002,-4.00002 0,-2.20915 1.79087,-4.00002 4.00002,-4.00002 2.20915,0 4.00002,1.79087 4.00002,4.00002 z" rx="4" ry="4" style="fill:#000;stroke:#000"/><text id="text746" x="199" y="-532.1" font-size="8" style="font-size:8px;text-anchor:middle;font-family:'Helvetica,sans-Serif'">ingredient (mealitem)</text></g><g id="edge12" class="edge" transform="translate(4,734)"><title id="title749">wger_nutrition_models_MealItem-&gt;wger_nutrition_models_IngredientWeightUnit</title><path id="path751" d="m 390.177,-620.38 c 16.801,13.556 34.508,27.842 50.528,40.767" style="fill:none;stroke:#000"/><ellipse id="ellipse753" cx="386.653" cy="-623.223" d="m 390.65304,-623.22302 c 0,2.20915 -1.79087,4.00002 -4.00002,4.00002 -2.20915,0 -4.00002,-1.79087 -4.00002,-4.00002 0,-2.20915 1.79087,-4.00002 4.00002,-4.00002 2.20915,0 4.00002,1.79087 4.00002,4.00002 z" rx="4" ry="4" style="fill:#000;stroke:#000"/><text id="text755" x="455" y="-601.1" font-size="8" style="font-size:8px;text-anchor:middle;font-family:'Helvetica,sans-Serif'">weight_unit (mealitem)</text></g><g id="edge13" class="edge" transform="translate(4,734)"><title id="title758">wger_nutrition_models_MealItem-&gt;wger_nutrition_models_Meal</title><path id="path760" d="m 320,-617.51 c 0,14.967 0,30.634 0,44.246" style="fill:none;stroke:#000"/><ellipse id="ellipse762" cx="320" cy="-621.735" d="m 324,-621.73499 c 0,2.20914 -1.79086,4 -4,4 -2.20914,0 -4,-1.79086 -4,-4 0,-2.20913 1.79086,-4 4,-4 2.20914,0 4,1.79087 4,4 z" rx="4" ry="4" style="fill:#000;stroke:#000"/><text id="text764" x="349" y="-601.1" font-size="8" style="font-size:8px;text-anchor:middle;font-family:'Helvetica,sans-Serif'">meal (mealitem)</text></g></svg>